<?xml version="1.0" encoding="UTF-8" standalone="no"?>
<svg width="1612.7799" height="1142.3452" viewBox="0 0 1612.7799 1142.3452" version="1.1" id="svg685"
  xml:space="preserve" xmlns="http://www.w3.org/2000/svg" xmlns:svg="http://www.w3.org/2000/svg">
  <defs id="defs687" />
  <g id="layer1" transform="translate(1401.9543,498.0198)">
    <g id="grass">
      <path
        style="opacity:0.346;fill:#51fc48;fill-opacity:0.8;stroke:#000000;stroke-width:3;stroke-dasharray:none;stroke-opacity:1"
        d="m -1336.1093,-121.28072 c 15.6654,2.12241 15.6654,2.12241 15.6654,2.12241 l -48.4112,328.97396 29.1656,50.31823 -29.1579,25.01288 -25.8704,-4.43086 z"
        id="path14" />
      <path
        style="opacity:0.346;fill:#51fc48;fill-opacity:0.801136;stroke:#000000;stroke-width:3;stroke-dasharray:none;stroke-opacity:1"
        d="m -1292.2461,-232.25259 c -3.8406,2.62775 -2.4256,3.43629 -2.4256,3.43629 l -12.1281,84.2901 12.5323,2.82989 -0.8085,5.45763 61.2468,9.70246 2.6277,-7.27685 3.4363,-4.64909 z"
        id="path15" />
      <path
        style="opacity:0.346;fill:#51fc48;fill-opacity:0.801136;stroke:#000000;stroke-width:3;stroke-dasharray:none;stroke-opacity:1"
        d="m -1282.8031,-236.97911 c -3.8591,-5.1455 -3.8591,-5.1455 -3.8591,-5.1455 l 61.6031,-93.04789 211.9608,-52.11728 13.74513,35.17141 34.76714,-14.55369 6.06404,12.93661 14.55368,6.46831 17.18144,42.65039 -42.65039,22.03266 -7.88325,-15.36222 -41.23549,19.80918 7.2769,17.58571 -18.5964,9.50032 -31.533,-73.77911 8.2875,-3.63842 -13.543,-34.56501 -26.2775,12.12808 16.5751,32.94793 8.6918,-3.63842 39.2141,91.76908 -44.8739,0.40427 -40.4269,9.09605 -45.6824,-98.64166 -57.2041,25.67109 37.597,82.87516 48.9166,-20.61772 6.064,14.14942 -26.8839,14.14942 -41.8418,28.90523 -17.7879,12.73448 -12.128,12.93661 -6.6705,-9.70246 32.948,-21.62839 -53.7678,-77.8218 -7.8833,5.2555 -4.6491,-6.67044 -14.9579,10.30886 4.4469,5.65977 z"
        id="path16" />
      <path
        style="opacity:0.346;fill:#51fc48;fill-opacity:0.801136;stroke:#000000;stroke-width:3;stroke-dasharray:none;stroke-opacity:1"
        d="m -1239.0663,-113.34405 -4.002,28.014419 v 37.161984 l -21.4396,-2.858615 1.0005,-9.433426 -8.7188,-0.571723 4.0021,-31.158894 -33.16,-4.573782 4.4309,-25.155803 z"
        id="path17" />
      <path
        style="opacity:0.346;fill:#51fc48;fill-opacity:0.801136;stroke:#000000;stroke-width:3;stroke-dasharray:none;stroke-opacity:1"
        d="m -1243.4971,-30.44424 c -0.7147,11.434456 -0.7147,11.434456 -0.7147,11.434456 l -3.5733,12.2920409 -7.2894,19.5815061 -6.7178,15.865309 -5.2884,18.438061 -1.1434,26.728041 2.8586,23.726497 7.0036,23.154779 4.5738,8.8617 0.4023,0.89023 -98.3099,59.2836 -3.8591,-3.28741 22.1543,-149.076725 46.0236,6.574812 9.7193,-70.750699 8.8617,1.143446 0.8576,-8.289981 z"
        id="path18" />
      <path
        style="opacity:0.346;fill:#51fc48;fill-opacity:0.801136;stroke:#000000;stroke-width:3;stroke-dasharray:none;stroke-opacity:1"
        d="m -1027.2477,-243.97639 c 20.4156,-9.70246 20.4156,-9.70246 20.4156,-9.70246 l 7.27679,17.38357 43.45893,-19.60705 -7.27684,-14.35155 42.44825,-21.42626 5.2555,10.91526 9.90459,13.34088 13.94729,12.73448 16.36702,10.27801 20.79642,6.86068 2.85862,5.00257 -0.14294,3.9306 -4.28792,5.00257 -12.07764,5.00258 -7.78972,3.57326 -9.36197,5.35991 -21.15374,11.93471 -6.71774,3.21594 -13.57842,1.14345 -8.71877,-2.0725 -12.64937,-8.28998 -23.08331,-16.72289 -12.36351,-6.07456 -14.36453,-2.28689 -23.01189,0.28586 z"
        id="path19" />
      <path
        style="opacity:0.346;fill:#51fc48;fill-opacity:0.801136;stroke:#000000;stroke-width:3;stroke-dasharray:none;stroke-opacity:1"
        d="m -911.22251,-364.65071 c 11.62273,4.24482 11.62273,4.24482 11.62273,4.24482 l 49.92724,-20.31452 16.17076,40.12371 -59.83182,23.64974 -19.50599,-43.76213 z"
        id="path20" />
      <path
        style="opacity:0.346;fill:#51fc48;fill-opacity:0.801136;stroke:#000000;stroke-width:3;stroke-dasharray:none;stroke-opacity:1"
        d="m -841.18289,-384.66203 c 4.04269,7.88325 4.04269,7.88325 4.04269,7.88325 l 29.81484,-12.63341 12.02701,30.42125 6.4683,-2.62775 -14.35155,-37.6981 z"
        id="path21" />
      <path
        style="opacity:0.346;fill:#51fc48;fill-opacity:0.801136;stroke:#000000;stroke-width:3;stroke-dasharray:none;stroke-opacity:1"
        d="m -890.70586,-310.27652 c 72.2631,-28.80417 72.2631,-28.80417 72.2631,-28.80417 l 21.83053,56.69874 c 0,0 -64.07665,39.2141 -94.09363,-27.89457 z"
        id="path22" />
      <path
        style="opacity:0.346;fill:#53fc4a;fill-opacity:0.801136;stroke:#000000;stroke-width:3;stroke-dasharray:none;stroke-opacity:1"
        d="m -911.18324,-425.07592 c 6.43188,13.72135 6.43188,13.72135 6.43188,13.72135 l -15.00772,6.14602 -5.71723,-11.14859 11.57738,-21.58254 244.98323,-58.31573 11.72032,30.87304 9.86222,12.72083 5.5743,16.15117 -2.42983,16.15117 -10.14808,24.72701 -4.43085,11.72032 -0.57172,13.43548 5.1455,7.57533 7.86119,10.7198 0.85759,1.14345 6.00309,-1.57224 1.71517,3.28741 -146.36105,62.31779 -20.43909,-57.60108 19.29565,-8.43291 13.00669,32.44527 107.19803,-47.0242 1.24674,-0.5703 -40.40975,-95.33621 -16.86583,7.14654 -5.28843,-13.57842 z"
        id="path23" />
      <path
        style="opacity:0.346;fill:#51fc48;fill-opacity:0.801136;stroke:#000000;stroke-width:3;stroke-dasharray:none;stroke-opacity:1"
        d="m -1333.3805,194.5545 c 8.3886,13.23981 8.3886,13.23981 8.3886,13.23981 l -13.7452,8.38858 8.995,15.16009 13.6441,-8.28751 19.6071,32.44259 -14.8569,12.43127 -16.1708,-18.39424 -1.9203,1.51601 -25.2668,-43.8632 z"
        id="path24" />
      <path
        style="opacity:0.346;fill:#53fc4a;fill-opacity:0.801136;stroke:#000000;stroke-width:3;stroke-dasharray:none;stroke-opacity:1"
        d="m -1247.7765,141.69631 c 22.2348,22.63907 22.2348,22.63907 22.2348,22.63907 l 22.8412,15.7665 -6.2662,9.50032 -17.5857,-9.09605 -23.8519,46.49094 74.1834,36.78849 22.6391,-46.08668 -16.9793,-9.70246 5.4576,-8.48965 23.8519,11.52167 -27.2882,82.67303 -91.5669,-0.60641 -38.0013,-63.87451 63.4702,-41.23545 -23.8519,-38.00129 z"
        id="path25" />
      <path
        style="opacity:0.346;fill:#53fc4a;fill-opacity:0.801136;stroke:#000000;stroke-width:3;stroke-dasharray:none;stroke-opacity:1"
        d="m -1396.0004,293.61776 4.5062,0.28586 29.1074,34.36287 18.5964,-15.96862 -15.7665,-18.19211 14.9579,-12.33021 18.7985,21.42626 25.469,-22.03266 -7.0747,-5.45764 14.7558,-11.31953 21.6284,35.57568 98.2374,2.62775 11.1174,4.04269 -5.4576,15.96863 25.7721,8.99498 4.9523,-16.06969 16.575,6.06403 22.0327,-63.87451 5.5163,6.4144 1.7151,7.4324 -0.5717,8.57584 -3.1445,5.28844 -4.2879,5.1455 -2.4298,7.00361 0.8576,11.14859 5.5743,6.14602 5.8601,4.28792 8.4329,1.14345 7.7183,-1.14345 4.8596,-4.00206 7.4324,-7.71825 5.0026,-1.14345 6.4319,0.28586 7.0036,6.71774 10.291,12.00618 10.5769,5.28844 13.5154,2.0642 16.01921,-3.48682 14.25048,-13.13874 2.77935,-6.87258 3.38576,-7.68111 8.79285,-12.48181 1.31387,-12.12807 -3.13308,-11.92594 -7.93378,-6.92311 -5.91244,-3.28468 -6.82204,-1.81922 -8.54018,0.20214 -7.7316,-9.70246 -8.8434,-4.69963 -12.3808,0.20214 -0.7074,0.0505 1.8697,9.50032 8.3886,0.15161 2.4761,0.65693 7.9338,7.52951 -8.9297,9.96823 -3.3588,8.43291 -5.3599,5.43137 -7.9327,2.57275 -11.5774,-6.14602 -8.9332,-0.50026 -9.0761,2.64422 -8.147,0.14293 -8.3615,-4.71671 -5.2169,-6.57481 -2.9301,-11.50592 -10.5054,-11.79179 2.0725,-6.21748 -45.7378,-14.79333 2.8586,-10.07662 23.5835,4.78818 25.0129,-0.78612 26.0134,-5.57429 1.7152,7.36093 -14.9363,2.64422 10.0052,43.59386 42.1645,-9.71929 -8.4329,-42.45042 -16.0082,3.7162 -1.5924,-8.14649 23.7508,-4.64909 14.2505,1.71814 7.3779,3.73949 8.38857,5.35657 37.19276,43.96426 31.02765,28.0967 54.27312,26.58069 26.07536,7.88325 23.64974,3.73949 38.3045,-0.70747 60.43822,-14.35155 6.16511,5.15443 -1.01067,33.82582 33.46642,0.72132 1.57224,-41.8787 4.00206,-3.7162 16.7229,-0.42879 32.30233,23.44064 22.58306,10.00514 17.86633,3.00155 69.17846,2.14396 32.15941,-4.28792 23.15478,-10.86273 18.72392,-16.00824 17.43755,-24.44115 13.00669,-7.00361 15.15065,-14.29307 11.72032,-5.00257 14.72187,-2.57276 17.29461,-0.14293 7.28947,-0.85758 16.2941,-14.15014 1.71517,-4.71671 0.21997,-1.0014 h 13.64408 l 2.72881,-2.02135 3.33522,-1.01067 6.56938,1.41494 12.22914,11.31954 4.95229,3.23415 7.98432,0.50534 6.06403,3.73948 3.94163,5.76084 1.92027,7.47898 8.79286,9.70245 2.42561,12.02701 -2.22348,19.20278 3.94162,15.05902 6.36724,11.62274 11.31954,10.61206 12.43127,8.18645 5.65977,1.31388 3.43629,3.43628 0.70747,4.44696 -2.12242,2.82989 -6.56937,8.99499 -0.80854,11.82487 3.63842,9.39925 6.36724,5.96297 6.67044,3.53736 2.72882,0.10106 -0.50534,13.94729 2.12242,7.17577 7.58004,9.50033 6.77151,5.96296 -4.75016,7.68112 -1.71815,7.98431 -1.11174,7.58005 2.42562,12.12807 2.62775,5.76083 8.21087,11.05281 15.32932,8.14705 6.8964,0.60746 12.57791,-0.78612 9.54062,-3.64473 6.28895,-4.93111 11.07985,-15.14278 1.67672,-14.87264 -1.45996,-14.99491 -17.08037,-19.10172 -3.03202,-6.67044 0.30321,-7.17577 2.02134,-11.82487 -3.03202,-11.62274 -8.08538,-9.09605 3.13309,-9.60139 -2.62775,-6.46831 -10.40993,-10.71313 h -15.26116 l -7.17577,-7.17578 -2.42562,-8.59071 -8.28751,-8.08539 -13.84622,-0.50533 -3.23415,2.82988 -12.12808,1.01067 -10.10672,-3.23415 -11.4206,-10.511 -3.63843,-7.68111 -1.11174,-19.60705 3.73949,-10.61206 1.21281,-5.5587 -10.91527,-11.01633 -0.80853,-8.18645 0.50533,-6.46831 -0.70747,-3.73949 -6.87257,-6.36724 -2.93095,-1.31387 -12.33021,1.11174 -6.36724,-0.6064 -6.4683,-7.07471 -2.93095,-4.75016 -5.2555,-5.5587 -5.76084,-0.30321 -16.6761,0.60641 -1.01067,-0.3032 8.79285,-10.2078 0.70747,-9.09605 -3.84055,-5.76084 -5.8619,-5.2555 -7.88325,-1.516 -9.29819,1.11174 -7.47898,8.99498 0.60641,10.511 -12.12808,-9.60139 -4.34589,-8.79285 0.40427,-10.71313 0.6064,-14.75583 -4.75016,-9.50032 -33.55433,-22.74014 -9.19712,-21.72946 12.22914,-31.027651 -0.40427,-7.883247 -7.88325,-23.043338 7.27684,-4.649094 49.65329,116.74731 97.19288,-41.16404 18.00927,39.73473 c 0,0 -25.68197,87.82533 58.88745,120.63352 l 58.13373,142.14114 19.607051,-7.07471 2.627749,7.27684 -12.53234,10.10673 -4.6491,14.14942 3.43629,11.1174 v 12.12807 l -4.85123,10.91527 -9.09605,8.08538 -12.93661,7.68111 -11.92594,8.89392 -14.14942,15.96863 -6.26617,21.22413 2.82988,29.71377 10.91527,18.69745 17.18144,15.36222 25.46895,8.38859 24.458277,-1.31388 17.888907,-6.26617 18.596378,-12.93661 24.155078,-6.06404 30.3201808,-1.01067 28.0967012,-8.48965 22.032665,-10.40993 24.357212,-1.21281 23.447611,4.54803 26.68176,-5.05336 16.9793,-10.8142 15.07958,-18.4768 7.14654,-22.01133 -3.14448,-19.72444 -30.87303,-62.03193 -16.2941,-13.43548 L 96.907018,419.64455 84.900839,409.6394 81.18464,394.20288 90.903928,362.75813 91.475651,335.02957 51.955311,247.12719 47.524459,242.83927 31.730616,231.47628 22.440121,219.39863 16.579962,206.39194 9.0046344,173.80374 -6.4318817,142.64484 -17.866338,125.2073 -27.442695,89.617552 -33.588716,76.467927 -56.74349,53.884876 l -7.718258,-14.15014 8.432912,-4.144991 -44.229894,-101.889874 -65.49159,27.490297 9.09605,19.202782 -18.19211,7.681112 -7.88325,-19.809185 -24.05401,11.1174 -3.63842,-7.681113 106.12064,-46.086675 17.989971,5.861902 147.760349,293.499349 -10.308861,5.65977 14.755821,27.4903 7.276844,-4.04269 89.949866,182.32535 -17.18143,6.67044 62.66171,123.09994 -358.68009,76.4376 -2.42982,-4.85965 -3.14448,0.71466 -133.35434,-365.04502 -62.38926,14.50746 -40.24053,-19.19603 -22.2348,21.3252 -7.27685,-0.50534 -2.93095,3.43629 6.06404,44.7728 -7.68111,2.02134 3.09122,21.31206 -954.00868,-20.82704 -16.7006,-9.27787 -7.0747,-15.46329 z"
        id="path26" />
      <path
        style="opacity:0.346;fill:#53fc4a;fill-opacity:0.801136;stroke:#000000;stroke-width:3;stroke-dasharray:none;stroke-opacity:1"
        d="m -1038.7489,32.802597 1.8581,34.803626 c 0,0 -33.0885,-16.2941 -1.8581,-34.803626 z" id="path27" />
      <path
        style="opacity:0.346;fill:#53fc4a;fill-opacity:0.801136;stroke:#000000;stroke-width:3;stroke-dasharray:none;stroke-opacity:1"
        d="m -1156.3094,84.472046 c 41.4499,16.008244 41.4499,16.008244 41.4499,16.008244 l -6.7177,21.01081 -40.1636,-32.15941 -7.4324,-11.720317 -1.7151,-10.862734 0.8576,-9.147565 17.2946,-62.460718 2.5727,-25.870458 0.8576,-3.144475 3.5733,-0.428792 3.4303,1.572238 c 0,0 40.8711,68.104676 112.831,27.879902 l 30.9573,-7.655208 1.8581,26.084854 -18.4381,1.000515 -0.7146,-10.1480802 -19.7959,1.1434457 1.1434,10.2910105 -5.6457,-0.14293 0.2144,6.717743 -9.2191,3.716198 -8.8617,9.147565 -2.1439,5.645763 -0.5003,5.717228 0.5003,7.003605 -0.7862,5.860159 -6.3604,4.716713 -10.2195,2.715683 -6.5034,7.718258 -1.2863,3.215941 1.0005,8.718773 -1.7152,3.430337 -4.9311,4.430852 -5.8602,-0.07147 -2.7156,-1.929564 16.437,-44.022657 8.7902,4.073525 6.3604,-18.080734 -9.7192,-4.00206 4.2164,-11.148595 -53.9563,-19.08124894 z"
        id="path28" />
      <path
        style="opacity:0.346;fill:#53fc4a;fill-opacity:0.801136;stroke:#000000;stroke-width:3;stroke-dasharray:none;stroke-opacity:1"
        d="m -1081.8241,-124.31274 c -4.8512,53.96992 -4.8512,53.96992 -4.8512,53.96992 l -14.7558,-1.010673 -5.6598,-8.691785 -11.3195,-2.627749 -10.9153,8.287516 -3.032,8.085382 3.2342,9.500323 9.5003,5.255498 10.1067,0.404269 6.4683,-6.468305 13.9473,0.606403 -2.6278,30.118047 64.2788,7.478978 0.8086,-12.734476 11.4045,0.837568 1.2864,-20.081764 -9.5049,-0.142931 v -7.575327 c 0,0 8.5044,3.21594 14.0072,1.929564 5.5028,-1.286376 9.93368,-3.287406 9.93368,-3.287406 l 4.85965,-3.859129 7.78972,-1.214911 7.218,5.216971 1.21491,7.075069 -2.00103,5.002575 v 5.288436 l 2.42982,3.287406 7.78973,6.217486 1.50077,2.286891 -0.42879,8.575843 -36.16146,1.858099 -20.725,6.074555 -33.7316,12.4349711 c 0,0 -46.9269,12.5242879 -87.556,-52.9673041 l -4.5628,-8.064107 v -10.433941 l 4.8596,-10.291011 32.8026,-27.585631 z"
        id="path29" />
      <path
        style="opacity:0.346;fill:#53fc4a;fill-opacity:0.801136;stroke:#000000;stroke-width:3;stroke-dasharray:none;stroke-opacity:1"
        d="m -1067.2704,-127.74903 c -1.4149,12.73448 -1.4149,12.73448 -1.4149,12.73448 l 49.624,5.45763 -3.3352,38.203427 8.0854,3.537354 10.2078,-1.212807 6.56934,-6.771507 7.98431,-9.904592 12.93661,-2.324548 10.91527,6.266171 3.94162,6.468305 1.61708,7.074709 4.54803,6.266171 7.17577,3.638422 11.92594,-0.202135 7.47898,-5.5587 7.68111,-8.186448 6.77151,-3.234153 12.027,-1.920278 0.30321,-11.016333 35.97994,-1.212807 -0.6064,-17.989971 c 0,0 -69.34214,33.598535 -110.22032,1.01033 -40.8782,-32.5882 -90.1961,-21.12272 -90.1961,-21.12272 z"
        id="path30" />
      <path
        style="opacity:0.346;fill:#53fc4a;fill-opacity:0.801136;stroke:#000000;stroke-width:3;stroke-dasharray:none;stroke-opacity:1"
        d="m -901.60689,-70.036045 c 2.57276,67.606223 2.57276,67.606223 2.57276,67.606223 l 49.88281,-0.5717228 -4.14499,-110.1995752 33.44579,-15.43651 6.43188,19.86736 2.85861,26.013392 -4.71671,43.736796 -8.14705,31.4447547 -10.7198,28.5861413 -2.28689,4.573782 -11.29153,15.722378 -7.71826,5.431366 -11.00566,-1.715168 -13.72135,-21.582536 c 0,0 -38.59129,-38.305429 -76.89672,-44.308519 l -1.92956,-0.142931 1.14344,-9.147565 3.5018,-7.146535 4.64525,-1.929564 15.65091,-1.500773 10.9342,-9.21903 3.43034,-11.505922 7.0036,-7.646793 z"
        id="path31" />
      <path
        style="opacity:0.346;fill:#53fc4a;fill-opacity:0.801136;stroke:#000000;stroke-width:3;stroke-dasharray:none;stroke-opacity:1"
        d="m -1035.8385,85.603978 c 1.7182,23.245472 1.7182,23.245472 1.7182,23.245472 l -57.103,15.05902 -18.8996,0.90961 7.58,-22.2348 c 0,0 11.7238,9.09605 26.7829,-8.186449 l 1.4149,-8.287517 c 0,0 0.5054,-2.223479 2.0214,-5.457632 1.516,-3.234153 7.9843,-5.053364 7.9843,-5.053364 l 5.1544,1.212808 4.548,2.526681 12.3302,-0.202134 z"
        id="path32" />
    </g>
    <g id="g1" transform="translate(-2.8791761e-5)">
      <path
        style="opacity:0.346;fill:#53fc4a;fill-opacity:0.801136;stroke:#000000;stroke-width:3;stroke-dasharray:none;stroke-opacity:1"
        d="m -786.40474,3.4303369 c 15.43652,37.7337061 15.43652,37.7337061 15.43652,37.7337061 l -10.86273,6.00309 16.86582,35.446814 11.72032,-4.859644 20.86788,54.313667 c 0,0 -31.38843,24.38416 -3.79707,54.30008 0,0 14.35155,13.94728 31.63406,8.79285 l 4.24482,10.8142 -60.38209,23.28575 -11.1486,1.71517 c 0,0 -129.69424,-48.2464 -69.05388,-175.186887 0,0 7.07409,-32.757696 54.47495,-52.3587961 z"
        id="path36" />
      <path
        style="opacity:0.346;fill:#53fc4a;fill-opacity:0.801136;stroke:#000000;stroke-width:3;stroke-dasharray:none;stroke-opacity:1"
        d="m -772.96248,-2.0213454 c 14.55368,38.8098314 14.55368,38.8098314 14.55368,38.8098314 l 12.73448,-5.053363 16.17076,36.586352 -12.33021,5.659767 22.63907,51.140038 c 0,0 42.24612,-3.23415 42.85253,42.04399 0,0 -1.01068,10.71313 -15.96863,22.8412 l 5.45763,13.34088 c 0,0 47.90589,-0.40427 60.43823,14.95795 12.53234,15.36223 36.58635,20.41559 36.58635,20.41559 0,0 34.96928,8.89392 38.80983,-5.05336 0,0 4.34589,-4.8007 -2.32455,-17.18144 -6.67044,-12.38074 -20.41558,-52.55498 -22.33586,-52.25178 -1.92028,0.30321 -34.05967,14.14942 -34.05967,14.14942 l -5.15443,-9.50032 c 0,0 -2.72882,1.01067 -2.72882,1.11174 0,0.10107 0,0.10107 0,0.10107 l -6.36724,-12.93661 -3.13308,0.70747 -23.85188,-56.19341 2.93095,-1.31387 -5.2555,-12.532342 2.82989,-2.425614 -4.14376,-9.601391 34.86821,-15.867562 c 0,0 -43.44043,-97.993089 -153.21798,-61.9542364 z"
        id="path37" />
      <path
        style="opacity:0.346;fill:#53fc4a;fill-opacity:0.801136;stroke:#000000;stroke-width:3;stroke-dasharray:none;stroke-opacity:1"
        d="m -721.11498,140.68564 c 6.97365,-1.71814 6.97365,-1.71814 6.97365,-1.71814 l 7.47897,1.01067 4.85123,1.21281 5.35657,4.75016 5.35656,7.17577 c 0,0 6.16511,29.91592 -23.1444,28.70311 -29.30951,-1.21281 -21.42626,-38.80983 -6.87258,-41.13438 z"
        id="path38" />
    </g>
    <path
      style="opacity:0.346;fill:#53fc4a;fill-opacity:0.801136;stroke:#000000;stroke-width:3;stroke-dasharray:none;stroke-opacity:1"
      d="m -989.08048,-12.577902 c 1.42931,25.155804 1.42931,25.155804 1.42931,25.155804 h 5.43137 l 4.09076,66.153502 5.8619,4.244825 7.17577,-5.760834 2.02135,-8.89392 8.08538,-6.67044 7.88325,1.11174 7.27684,-0.505336 3.33522,-3.234153 -5.96297,-19.101714 45.98561,-14.048351 2.82988,12.22914 11.31954,-2.22348 c 0,0 -31.86752,-53.030566 -106.76321,-48.456783 z"
      id="path33" transform="translate(-2.8791761e-5)" />
    <path
      style="opacity:0.346;fill:#53fc4a;fill-opacity:0.801136;stroke:#000000;stroke-width:3;stroke-dasharray:none;stroke-opacity:1"
      d="m -889.17191,51.740915 c 14.29307,-4.573782 14.57893,-4.573782 14.29307,-4.573782 -0.28586,0 6.28895,22.011328 6.28895,22.011328 l 1.14344,20.439091 -0.28586,12.720828 -16.00824,1.00052 c 0,0 5.86016,-28.30028 -5.43136,-51.597985 z"
      id="path34" transform="translate(-2.8791761e-5)" />
    <path
      style="opacity:0.346;fill:#53fc4a;fill-opacity:0.801136;stroke:#000000;stroke-width:3;stroke-dasharray:none;stroke-opacity:1"
      d="m -931.13276,89.646669 c -4.6491,-0.404269 -4.6491,-0.404269 -4.6491,-0.404269 0,0 -5.76083,-6.064036 -5.65977,-6.064036 0.10107,0 0.10107,0 0.10107,0 l -2.02134,-3.840557 -2.12242,-2.627749 -7.78218,-0.303201 -3.94162,4.548027 -4.85123,6.67044 -8.79285,6.165103 -54.6774,2.728816 0.6064,10.814197 c 0,0 72.06097,-11.117399 118.95619,64.48092 l 24.22749,28.00277 18.1522,15.43651 14.436,6.71774 9.14757,-1.71516 5.1455,-5.43137 -0.85758,-11.43446 c 0,0 -34.6755,-41.88489 -33.26056,-86.55663 l -14.75582,-1.41494 0.20213,13.74515 h -47.29948 z"
      id="path35" transform="translate(-2.8791761e-5)" />
    <path
      style="opacity:0.346;fill:#53fc4a;fill-opacity:0.801136;stroke:#000000;stroke-width:3;stroke-dasharray:none;stroke-opacity:1"
      d="m -669.20156,-136.07003 c -44.88024,9.14756 -89.90341,-3.28741 -89.90341,-3.28741 l 0.42879,17.00876 48.31058,1.00051 -2.20919,87.541168 -24.20561,-0.252668 -0.0505,-3.89109 -18.79851,0.151601 0.0505,2.829883 -15.16009,-0.606403 2.62774,-107.333441 -19.20278,-6.46831 h -4.04269 l -16.57503,14.14942 9.50032,35.373547 1.81921,35.979948 3.84056,16.979301 9.70246,24.45828 8.89392,6.67044 c 116.83376,-35.575679 167.77167,70.34282 167.77167,70.34282 l 70.12762,-29.277591 11.00566,25.441665 15.15066,-6.717743 -12.86377,-30.873032 -2.85861,-14.4360013 -3.00155,-65.3193317 -18.1522,7.861188 13.43549,33.731647 -61.74606,27.0139029 -14.15014,-35.5897459 6.33758,-3.75564 -5.81136,-9.752992 78.80032,-32.800916 -3.43034,-15.722377 -6.57481,-12.863759 -16.86583,-24.44116 -6.00309,-6.28895 -12.86376,-2.42982 -2.14396,21.43961 17.00875,1.60797 -3.2874,27.978683 -24.40542,-3.001545 5.6815,-48.131918 -6.28896,0.1072 -19.15271,13.54269 -10.04088,2.82288 -14.36454,-1.17918 -26.79951,-7.03934 -0.64318,20.68922 22.69025,0.92905 -3.25369,68.92542 -32.84687,-1.516009 z"
      id="path39" transform="translate(-2.8791761e-5)" />
  </g>
</svg>