<?xml version="1.0" encoding="UTF-8" standalone="no"?>
<svg
   width="2560"
   height="1792"
   viewBox="0 0 2560 1792"
   version="1.1"
   id="svg685"
   xml:space="preserve"
   sodipodi:docname="SoDoKhuDiTich.svg"
   inkscape:version="1.4.3 (0d15f75, 2025-12-25)"
   xmlns:inkscape="http://www.inkscape.org/namespaces/inkscape"
   xmlns:sodipodi="http://sodipodi.sourceforge.net/DTD/sodipodi-0.dtd"
   xmlns="http://www.w3.org/2000/svg"
   xmlns:svg="http://www.w3.org/2000/svg"><sodipodi:namedview
     id="namedview1"
     pagecolor="#000000"
     bordercolor="#000000"
     borderopacity="0"
     inkscape:showpageshadow="2"
     inkscape:pageopacity="0.0"
     inkscape:pagecheckerboard="true"
     inkscape:deskcolor="#8f8f8f"
     inkscape:zoom="0.56138392"
     inkscape:cx="1057.2088"
     inkscape:cy="879.07754"
     inkscape:window-width="1366"
     inkscape:window-height="705"
     inkscape:window-x="-8"
     inkscape:window-y="-8"
     inkscape:window-maximized="1"
     inkscape:current-layer="layer1" /><defs
     id="defs687"><linearGradient
       id="swatch3"><stop
         style="stop-color:#050d08;stop-opacity:0.80113639;"
         offset="0"
         id="stop3" /></linearGradient><linearGradient
       id="swatch2"><stop
         style="stop-color:#9f0606;stop-opacity:1;"
         offset="0"
         id="stop2" /></linearGradient></defs><g
     id="layer1"
     transform="translate(2862.04,-465.10999)"><g
       id="water"
       style="display:inline"
       inkscape:label="water"><path
         style="opacity:0.930131;fill:#4ac8f8;fill-opacity:0.928706;stroke:#000000;stroke-width:0;stroke-dasharray:none"
         d="m -1355.208,1542.5362 36.3843,41.6397 46.8952,-20.8198 -26.4796,46.2888 36.3842,41.0333 -52.9593,-12.5323 -27.2881,45.6824 -4.8513,-53.5657 -54.172,-12.7345 50.9379,-20.6177 z"
         id="path137" /><path
         style="opacity:0.930131;fill:#4ac8f8;fill-opacity:0.928706;stroke:#994625;stroke-width:0;stroke-dasharray:none"
         d="m -1498.031,1361.3678 -37.4767,19.0919 -5.3033,-7.0711 15.2028,-26.1629 15.9099,-12.7279 z"
         id="path118" /><path
         style="opacity:0.930131;fill:#4ac8f8;fill-opacity:0.928706;stroke:#994625;stroke-width:0;stroke-dasharray:none"
         d="m -1485.6566,1356.0645 120.5617,-49.1439 25.1022,-64.7003 7.4247,-4.2426 35.7089,8.1317 33.234,-99.3485 -27.5772,-15.5563 -15.5563,-100.7627 -21.2132,-4.5962 -8.4853,26.1629 -9.546,3.182 -70.3571,-9.5459 -63.286,57.9827 -7.0711,35.3553 39.598,70.0036 18.3847,1.4142 0.7072,50.9117 -10.9602,4.9498 -1.4142,8.1317 -28.6378,32.8805 -28.6379,22.2739 z"
         id="path119" /><path
         id="path122"
         style="opacity:0.930131;fill:#4ac8f8;fill-opacity:0.928706;stroke:#994625;stroke-width:0;stroke-dasharray:none"
         d="m -2273.54,1274.11 0.2012,-0.064 -2.7949,-7.625 c 60.034,-31.3308 134.8242,28.7032 134.8242,28.7032 56.1934,20.6178 108.1425,-25.4688 108.1425,-25.4688 l 20.045,-5.2031 -18.5117,-48.6445 -15.9532,4.9492 -6.0039,8.0039 -16.2929,6.8613 c -49.7399,23.1548 -76.8965,-4.2891 -76.8965,-4.2891 l -24.2989,-19.7226 -102.9101,0.5703 -22.0117,3.1445 z" /><path
         id="path170"
         style="opacity:0.930131;fill:#4ac8f8;fill-opacity:0.928706;stroke:#994625;stroke-width:0;stroke-dasharray:none"
         d="m -1774.5107,1085.4186 -33.8789,15.7578 23.0391,39.9199 10.3085,16.7774 7.2774,27.289 -2.2227,13.543 -12.9375,13.9473 -37.5976,2.2226 c -22.639,-10.7131 -66.0977,0.4043 -66.0977,0.4043 0,0 -36.7877,1.0119 -58.8203,-10.9141 -22.0327,-11.9259 -44.4707,-8.4902 -44.4707,-8.4902 l -30.5215,11.9258 -1.6953,-3.7891 -0.047,0.024 20.5078,54.625 0.9297,-0.2246 17.4688,-8.6641 14.7226,-4.002 29.7286,7.7168 c 4.5738,4.5738 91.6191,3.8594 91.6191,3.8594 35.8756,13.5784 48.0234,8.1485 48.0234,8.1485 l 15.0078,-12.7207 22.0118,-2.1446 19.1523,3.5723 17.582,17.4375 28.7286,38.3066 5.8593,15.1504 4.7168,60.8887 28.5547,70.6777 0.078,-0.012 c 0,0 3.1816,7.7775 3.8887,7.0703 0.7071,-0.7071 54.0938,-22.8047 54.0938,-22.8047 l -0.5293,-12.373 -0.8106,-1.8418 -10.2695,-10.9043 c 0,0 -23.6498,3.8416 -30.3203,-11.7227 -6.6704,-15.5644 -14.5544,-96.2164 -24.0547,-104.0996 l -11.1172,-25.4687 -21.7285,-30.4219 -15.9688,-23.3457 -6.3672,-27.5918 -0.707,-19.9102 c 0,0 -9.6025,-39.8218 -23.3476,-62.4609 -10.4816,-17.2636 -22.1373,-23.361 -27.0821,-25.2832 v 0 z" /><path
         id="path175"
         style="opacity:0.930131;fill:#4ac8f8;fill-opacity:0.928706;stroke:#994625;stroke-width:0;stroke-dasharray:none"
         d="m -2307.7998,1218.5748 0.078,0.4668 c 0,0 -36.0175,29.7291 -63.7461,50.8828 -27.7286,21.1538 -27.1582,33.7325 -27.1582,33.7325 l -3.7149,91.7617 c 0,0 -0.2871,20.2947 -20.8691,59.1719 -19.3904,36.6262 0.039,70.7164 2.3535,74.541 l 46.334,-26.7832 -3.377,-8.0215 -1.2871,-9.291 0.1426,-12.7207 2.5723,-11.4356 18.0097,-58.1719 2.1446,-13.4355 -2.2872,-56.0293 0.8575,-5.5742 3.2871,-7.8613 43.3086,-35.1602 22.1465,-12.9199 z" /><path
         id="path183"
         style="opacity:0.930131;fill:#4ac8f8;fill-opacity:0.928706;stroke:#994625;stroke-width:0;stroke-dasharray:none"
         d="m -2369.6455,1515.0983 -43.8847,27.2675 31.6816,26.8516 53.4531,35.1836 18.2793,-45.582 c -4.2498,-1.1993 -48.622,-14.3552 -59.5293,-43.7207 z" /><path
         id="path184"
         style="opacity:0.930131;fill:#4ac8f8;fill-opacity:0.928706;stroke:#994625;stroke-width:0;stroke-dasharray:none"
         d="m -2202.5966,1547.8541 -36.7676,7.3965 -27.1563,6.1817 -17.7246,2.9648 -12.666,-1.5801 -16.8965,46.9082 c 7.3614,0.118 34.1873,4.0116 32.9571,3.5196 -1.4293,-0.5718 77.7539,-18.0098 77.7539,-18.0098 38.8771,-1.4293 54.8867,30.3008 54.8867,30.3008 45.7378,74.6098 116.9158,84.1877 142.3574,89.6191 25.4417,5.4313 115.8457,-17.1523 115.8457,-17.1523 l 8.9336,1.7871 25.7051,-5.1035 -20.3184,-49.4395 -50.1465,16.5488 c -73.1727,29.3095 -120.8261,-2.7422 -120.8261,-2.7422 l -12.4336,-7.4316 -18.7246,-14.8652 -19.1524,-18.7949 -14.0781,-19.0821 -18.9395,-23.9394 -14.2207,-12.8653 -16.2949,-8.9316 -18.4375,-5.2168 z" /><path
         id="path187"
         style="opacity:0.930131;fill:#4ac8f8;fill-opacity:0.928706;stroke:#994625;stroke-width:0;stroke-dasharray:none"
         d="m -1859.2763,1642.6666 19.4804,48.3711 c 19.0344,-4.0255 18.0606,20.2813 18.0606,20.2813 37.2451,25.3777 110.6057,22.061 124.4551,21.1816 l -1.0196,-52.9394 -23.4785,1.2343 c -60.1351,9.0961 -82.3711,-10.7129 -82.3711,-10.7129 -28.2985,-26.2298 -48.6701,-27.7329 -55.1269,-27.416 z" /><path
         id="path194"
         style="opacity:0.930131;fill:#4ac7f8;fill-opacity:0.93;stroke:#994625;stroke-width:0;stroke-dasharray:none"
         d="m -1587.9443,1470.3366 -0.5625,-0.4278 -4.0293,-10.3262 -54.4023,21.9122 2.7714,7.6816 -0.2812,0.3398 0.3906,-0.1406 13.9473,31.1289 1.1113,8.084 c 0,0 -7.3782,28.9055 10.3086,45.8848 17.6867,16.9793 18.9004,34.4648 18.9004,34.4648 0,0 5.7603,17.1801 -8.4902,37.1914 -14.2505,20.0113 -43.459,29.5117 -43.459,29.5117 l -32.4942,1.5801 -0.9726,12.6309 3.0117,42.4746 c 18.8502,-2.8477 40.7637,-19.9981 40.7637,-19.9981 l 15.3652,-14.5039 0.9141,-2.375 14.1035,-11.8379 1.2539,-0.7461 31.0254,-27.3359 c 27.861,-13.7447 48.7247,-5.4733 51.9258,-4.041 l 1.6797,-0.8711 4.0293,-19.6445 11.3339,2.5175 -3.0234,17.8829 0.5234,2.0332 h 12.5664 l 2.7286,-2.0215 3.3339,-1.0098 6.5704,1.4141 12.2285,11.3203 4.9531,3.2344 7.9844,0.5058 6.0644,3.7383 3.9414,5.7617 1.92,7.4785 8.7929,9.7032 2.4258,12.0254 -2.2246,19.2031 3.9414,15.0605 6.3672,11.6211 11.3203,10.6133 12.4316,8.1855 5.6602,1.3145 3.4355,3.4355 0.7071,4.4473 -2.1211,2.8301 -6.5703,8.9941 -0.8086,11.8262 3.6386,9.3984 6.3672,5.9629 6.67,3.5371 2.7285,0.1016 -0.5039,13.9473 2.1211,7.1758 7.58,9.5 6.7715,5.9628 -4.75,7.6817 -1.7168,7.9844 -1.1133,7.58 2.4258,12.1289 2.6289,5.7598 8.211,11.0527 15.3281,8.1465 6.8965,0.6074 12.5781,-0.7851 9.541,-3.6445 6.2891,-4.9317 4.0605,-5.5488 -1.3808,-16.8164 -4.4512,-10.1504 -13.1797,-10.3301 -6.0547,-7.123 -2.1367,-7.6582 c 0,0 -0.1797,-7.3013 -0.1797,-8.0137 0,-0.7123 4.4531,-12.6445 4.4531,-12.6445 l 0.8907,-9.6172 -2.6719,-10.6856 -8.5488,-9.9726 -6.0547,-3.7403 -5.3418,-0.3554 -4.0977,-0.8907 -4.2734,-4.2753 -2.6719,-3.0274 -2.6719,-3.7402 c 0,0 -1.6012,-2.1373 -1.7793,-2.8496 -0.1781,-0.7124 -0.5351,-3.5606 -0.5351,-3.5606 l 0.8906,-1.959 0.8027,-2.7617 1.5118,-3.5254 1.0078,-2.5195 -0.7559,-3.2734 -0.1269,-2.7715 -1.8887,-5.1621 -1.3848,-1.5118 -2.1406,-1.7636 -1.6367,-1.5098 -2.6446,-1.6387 -2.6445,-1.6367 -0.9238,-0.3183 -7.9512,-0.2911 -3.2344,2.8301 -12.1289,1.0117 -10.1054,-3.2343 -11.42,-10.5118 -3.6386,-7.6796 -1.1133,-19.6075 3.7402,-10.6132 1.2129,-5.5586 -10.916,-11.0157 -0.8086,-8.1855 0.5059,-6.4688 -0.7071,-3.7402 -6.873,-6.3672 -2.9297,-1.3144 -12.332,1.1132 -6.3672,-0.6074 -6.4668,-7.0742 -2.9317,-4.75 -5.2558,-5.5586 -5.7598,-0.3047 -16.6777,0.6074 -1.0098,-0.3027 8.793,-10.209 0.707,-9.0957 -3.8398,-5.7597 -5.8614,-5.2559 -7.8847,-1.5156 -9.2969,1.1113 -7.4805,8.9941 0.6075,10.5118 -12.1289,-9.6016 -4.3458,-8.793 0.4043,-10.7129 0.6075,-14.7558 -4.75,-9.5 -33.5547,-22.7403 -9.1973,-21.7304 12.2285,-31.0274 -0.4043,-7.8828 z" /><path
         style="display:inline;opacity:0.93;fill:#49c6f8;fill-opacity:0.93;stroke:#994625;stroke-width:0;stroke-dasharray:none"
         d="m -1757.5392,979.17662 70.0036,-28.99138 9.5459,22.62742 -69.2965,30.75914 z"
         id="path120" /></g><g
       id="grass"
       style="display:inline"
       inkscape:label="grass"><g
         id="g205"><path
           style="display:inline;opacity:1;fill:#53fc4a;fill-opacity:0.801136;stroke:#000000;stroke-width:3;stroke-dasharray:none;stroke-opacity:1"
           d="m -2222.7489,1448.8026 1.8581,34.8036 c 0,0 -33.0885,-16.2941 -1.8581,-34.8036 z"
           id="path27" /><path
           style="opacity:1;fill:#53fc4a;fill-opacity:0.801136;stroke:#000000;stroke-width:3;stroke-dasharray:none;stroke-opacity:1"
           d="m -2340.3094,1500.472 c 41.4499,16.0083 41.4499,16.0083 41.4499,16.0083 l -6.7177,21.0108 -40.1636,-32.1594 -7.4324,-11.7203 -1.7151,-10.8628 0.8576,-9.1475 17.2946,-62.4607 2.5727,-25.8705 0.8576,-3.1445 3.5733,-0.4288 3.4303,1.5723 c 0,0 40.8711,68.1046 112.831,27.8799 l 30.9573,-7.6552 1.8581,26.0848 -18.4381,1.0005 -0.7146,-10.148 -19.7959,1.1434 1.1434,10.291 -5.6457,-0.1429 0.2144,6.7177 -9.2191,3.7162 -8.8617,9.1476 -2.1439,5.6457 -0.5003,5.7173 0.5003,7.0036 -0.7862,5.8601 -6.3604,4.7168 -10.2195,2.7156 -6.5034,7.7183 -1.2863,3.2159 1.0005,8.7188 -1.7152,3.4303 -4.9311,4.4309 -5.8602,-0.072 -2.7156,-1.9295 16.437,-44.0227 8.7902,4.0735 6.3604,-18.0807 -9.7192,-4.0021 4.2164,-11.1486 -53.9563,-19.0812 z"
           id="path28" /><path
           style="display:inline;opacity:1;fill:#53fc4a;fill-opacity:0.801136;stroke:#000000;stroke-width:3;stroke-dasharray:none;stroke-opacity:1"
           d="m -2265.8241,1291.6873 c -4.8512,53.9699 -4.8512,53.9699 -4.8512,53.9699 l -14.7558,-1.0107 -5.6598,-8.6918 -11.3195,-2.6277 -10.9153,8.2875 -3.032,8.0854 3.2342,9.5003 9.5003,5.2555 10.1067,0.4043 6.4683,-6.4683 13.9473,0.6064 -2.6278,30.118 64.2788,7.479 0.8086,-12.7345 11.4045,0.8376 1.2864,-20.0818 -9.5049,-0.1429 v -7.5753 c 0,0 8.5044,3.2159 14.0072,1.9295 5.5028,-1.2864 9.9337,-3.2874 9.9337,-3.2874 l 4.8596,-3.8591 7.7898,-1.2149 7.218,5.2169 1.2149,7.0751 -2.0011,5.0026 v 5.2884 l 2.4299,3.2874 7.7897,6.2175 1.5008,2.2869 -0.4288,8.5758 -36.1615,1.8581 -20.725,6.0746 -33.7316,12.435 c 0,0 -46.9269,12.5243 -87.556,-52.9673 l -4.5628,-8.0641 v -10.434 l 4.8596,-10.291 32.8026,-27.5856 z"
           id="path29" /><path
           style="opacity:1;fill:#53fc4a;fill-opacity:0.801136;stroke:#000000;stroke-width:3;stroke-dasharray:none;stroke-opacity:1"
           d="m -2251.2704,1288.251 c -1.4149,12.7344 -1.4149,12.7344 -1.4149,12.7344 l 49.624,5.4577 -3.3352,38.2034 8.0854,3.5374 10.2078,-1.2128 6.5693,-6.7716 7.9844,-9.9045 12.9366,-2.3246 10.9152,6.2662 3.9417,6.4683 1.617,7.0747 4.5481,6.2662 7.1757,3.6384 11.926,-0.2022 7.479,-5.5587 7.6811,-8.1864 6.7715,-3.2342 12.027,-1.9202 0.3032,-11.0164 35.9799,-1.2128 -0.6064,-17.9899 c 0,0 -69.3421,33.5985 -110.2203,1.0103 -40.8782,-32.5882 -90.1961,-21.1227 -90.1961,-21.1227 z"
           id="path30" /><path
           style="opacity:1;fill:#53fc4a;fill-opacity:0.801136;stroke:#000000;stroke-width:3;stroke-dasharray:none;stroke-opacity:1"
           d="m -2085.6069,1345.964 c 2.5728,67.6062 2.5728,67.6062 2.5728,67.6062 l 49.8828,-0.5717 -4.145,-110.1996 33.4458,-15.4365 6.4319,19.8673 2.8586,26.0134 -4.7167,43.7368 -8.1471,31.4448 -10.7198,28.5861 -2.2869,4.5738 -11.2915,15.7224 -7.7183,5.4313 -11.0056,-1.7151 -13.7214,-21.5826 c 0,0 -38.5913,-38.3054 -76.8967,-44.3085 l -1.9296,-0.1429 1.1435,-9.1476 3.5018,-7.1465 4.6452,-1.9296 15.6509,-1.5008 10.9342,-9.219 3.4304,-11.5059 7.0036,-7.6468 z"
           id="path31" /><path
           style="opacity:1;fill:#53fc4a;fill-opacity:0.801136;stroke:#000000;stroke-width:3;stroke-dasharray:none;stroke-opacity:1"
           d="m -2219.8385,1501.604 c 1.7182,23.2454 1.7182,23.2454 1.7182,23.2454 l -57.103,15.0591 -18.8996,0.9096 7.58,-22.2348 c 0,0 11.7238,9.096 26.7829,-8.1865 l 1.4149,-8.2875 c 0,0 0.5054,-2.2235 2.0214,-5.4576 1.516,-3.2342 7.9843,-5.0534 7.9843,-5.0534 l 5.1544,1.2128 4.548,2.5267 12.3302,-0.2021 z"
           id="path32" /><path
           style="opacity:1;fill:#53fc4a;fill-opacity:0.801136;stroke:#000000;stroke-width:3;stroke-dasharray:none;stroke-opacity:1"
           d="m -2173.0805,1403.4221 c 1.4293,25.1558 1.4293,25.1558 1.4293,25.1558 h 5.4314 l 4.0908,66.1535 5.8619,4.2448 7.1757,-5.7608 2.0214,-8.8939 8.0854,-6.6705 7.8832,1.1118 7.2769,-0.5054 3.3352,-3.2341 -5.963,-19.1017 45.9856,-14.0484 2.8299,12.2292 11.3195,-2.2235 c 0,0 -31.8675,-53.0306 -106.7632,-48.4568 z"
           id="path33" /><path
           style="opacity:1;fill:#53fc4a;fill-opacity:0.801136;stroke:#000000;stroke-width:3;stroke-dasharray:none;stroke-opacity:1"
           d="m -2073.1719,1467.7409 c 14.2931,-4.5738 14.5789,-4.5738 14.2931,-4.5738 -0.2859,0 6.2889,22.0114 6.2889,22.0114 l 1.1435,20.4391 -0.2859,12.7208 -16.0082,1.0005 c 0,0 5.8601,-28.3003 -5.4314,-51.598 z"
           id="path34" /><path
           style="opacity:1;fill:#53fc4a;fill-opacity:0.801136;stroke:#000000;stroke-width:3;stroke-dasharray:none;stroke-opacity:1"
           d="m -2115.1328,1505.6467 c -4.6491,-0.4043 -4.6491,-0.4043 -4.6491,-0.4043 0,0 -5.7608,-6.064 -5.6597,-6.064 0.101,0 0.101,0 0.101,0 l -2.0213,-3.8406 -2.1224,-2.6277 -7.7822,-0.3032 -3.9416,4.548 -4.8512,6.6704 -8.7929,6.1651 -54.6774,2.7288 0.6064,10.8142 c 0,0 72.061,-11.1174 118.9562,64.481 l 24.2275,28.0027 18.1522,15.4365 14.436,6.7178 9.1476,-1.7152 5.1455,-5.4314 -0.8576,-11.4344 c 0,0 -34.6755,-41.8849 -33.2606,-86.5566 l -14.7558,-1.415 0.2021,13.7452 h -47.2995 z"
           id="path35" /><path
           style="opacity:1;fill:#53fc4a;fill-opacity:0.801136;stroke:#000000;stroke-width:3;stroke-dasharray:none;stroke-opacity:1"
           d="m -1970.4047,1419.4303 c 15.4365,37.7337 15.4365,37.7337 15.4365,37.7337 l -10.8627,6.0031 16.8658,35.4468 11.7203,-4.8596 20.8679,54.3137 c 0,0 -31.3885,24.3841 -3.7971,54.3 0,0 14.3516,13.9473 31.6341,8.7929 l 4.2448,10.8142 -60.3821,23.2857 -11.1486,1.7152 c 0,0 -129.6942,-48.2464 -69.0539,-175.1869 0,0 7.0741,-32.7577 54.475,-52.3588 z"
           id="path36" /><path
           style="opacity:1;fill:#53fc4a;fill-opacity:0.801136;stroke:#000000;stroke-width:3;stroke-dasharray:none;stroke-opacity:1"
           d="m -1956.9625,1413.9787 c 14.5537,38.8098 14.5537,38.8098 14.5537,38.8098 l 12.7345,-5.0534 16.1707,36.5864 -12.3302,5.6597 22.6391,51.1401 c 0,0 42.2461,-3.2342 42.8525,42.044 0,0 -1.0106,10.7131 -15.9686,22.8412 l 5.4576,13.3408 c 0,0 47.9059,-0.4042 60.4383,14.958 12.5323,15.3622 36.5863,20.4156 36.5863,20.4156 0,0 34.9693,8.8939 38.8098,-5.0534 0,0 4.3459,-4.8007 -2.3245,-17.1814 -6.6704,-12.3808 -20.4156,-52.555 -22.3359,-52.2518 -1.9202,0.3032 -34.0596,14.1494 -34.0596,14.1494 l -5.1545,-9.5003 c 0,0 -2.7288,1.0107 -2.7288,1.1117 0,0.1011 0,0.1011 0,0.1011 l -6.3672,-12.9366 -3.1331,0.7075 -23.8519,-56.1934 2.931,-1.3139 -5.2555,-12.5323 2.8299,-2.4257 -4.1438,-9.6013 34.8682,-15.8676 c 0,0 -43.4404,-97.9931 -153.218,-61.9542 z"
           id="path37" /><path
           style="opacity:1;fill:#53fc4a;fill-opacity:0.801136;stroke:#000000;stroke-width:3;stroke-dasharray:none;stroke-opacity:1"
           d="m -1905.115,1556.6856 c 6.9737,-1.7181 6.9737,-1.7181 6.9737,-1.7181 l 7.4789,1.0107 4.8513,1.2128 5.3565,4.7501 5.3566,7.1758 c 0,0 6.1651,29.9159 -23.1444,28.7031 -29.3095,-1.2128 -21.4263,-38.8098 -6.8726,-41.1344 z"
           id="path38" /><path
           style="opacity:1;fill:#53fc4a;fill-opacity:0.801136;stroke:#000000;stroke-width:3;stroke-dasharray:none;stroke-opacity:1"
           d="m -1853.2016,1279.93 c -44.8802,9.1475 -89.9034,-3.2874 -89.9034,-3.2874 l 0.4288,17.0087 48.3106,1.0005 -2.2092,87.5412 -24.2056,-0.2527 -0.05,-3.8911 -18.7985,0.1516 0.051,2.8299 -15.1601,-0.6064 2.6277,-107.3334 -19.2027,-6.4683 h -4.0427 l -16.5751,14.1494 9.5004,35.3735 1.8192,35.98 3.8405,16.9793 9.7025,24.4583 8.8939,6.6704 c 116.8338,-35.5757 167.7717,70.3428 167.7717,70.3428 l 70.1276,-29.2776 11.0057,25.4417 15.1506,-6.7177 -12.8637,-30.8731 -2.8587,-14.436 -3.0015,-65.3193 -18.1522,7.8612 13.4355,33.7316 -61.7461,27.0139 -14.1501,-35.5897 6.3376,-3.7557 -5.8114,-9.7529 78.8003,-32.801 -3.4303,-15.7223 -6.5748,-12.8638 -16.8659,-24.4412 -6.003,-6.2889 -12.8638,-2.4298 -2.144,21.4396 17.0088,1.6079 -3.2874,27.9787 -24.4054,-3.0015 5.6815,-48.1319 -6.289,0.1072 -19.1527,13.5427 -10.0409,2.8228 -14.3645,-1.1791 -26.7995,-7.0394 -0.6432,20.6892 22.6902,0.9291 -3.2537,68.9254 -32.8468,-1.516 z"
           id="path39" /><path
           style="opacity:1;fill:#53fc4a;fill-opacity:0.801136;stroke:#000000;stroke-width:3"
           d="m -1985.9688,1390.1268 c 2.4256,-0.1011 2.4256,-0.1011 2.4256,-0.1011 l 2.4256,2.931 1.2128,4.4469 2.8299,3.8406 0.3032,5.6597 -13.644,8.4897 -2.7329,-0.6621 -1.1434,-2.8408 1.5901,-6.003 3.877,-13.8822 1.3221,-1.7152 z"
           id="path1" /><path
           style="opacity:1;fill:#53fc4a;fill-opacity:0.801136;stroke:#000000;stroke-width:3"
           d="m -1686.8302,1518.3384 c 16.0082,-6.8607 16.0082,-6.8607 16.0082,-6.8607 l 32.8741,80.3271 c 0,0 12.7208,28.729 -12.8638,50.1686 l -13.4355,7.361 -10.0408,2.2154 -34.4027,0.9981 -6.3167,-3.3857 -3.0826,-6.721 -28.7711,-67.5023 70.3219,-29.8725 z"
           id="path3" /><path
           style="opacity:1;fill:#53fc4a;fill-opacity:0.801136;stroke:#000000;stroke-width:3"
           d="m -2414.9994,1541.1213 c -6.6704,4.2448 -6.6704,4.2448 -6.6704,4.2448 0,0 11.5217,26.0754 39.8205,37.7992 l 51.5443,26.8839 4.0427,-4.2449 -55.587,-36.5863 z"
           id="path50" /><path
           style="opacity:1;fill:#53fc4a;fill-opacity:0.801136;stroke:#000000;stroke-width:3"
           d="m -2370.1255,1513.732 c 9.7025,-5.5586 9.7025,-5.5586 9.7025,-5.5586 0,0 42.0439,40.2247 51.4432,42.145 -0.8085,8.5907 -0.8085,8.5907 -0.8085,8.5907 0,0 -49.8262,-13.3409 -60.3372,-45.1771 z"
           id="path51" /><path
           style="opacity:1;fill:#53fc4a;fill-opacity:0.801136;stroke:#000000;stroke-width:3"
           d="m -2294.1229,1554.159 c -4.0427,7.6811 -4.9523,8.3885 -4.9523,8.3885 l 14.8304,1.8503 17.7234,-2.9658 27.1568,-6.1818 36.7689,-7.3966 23.6551,0.072 18.438,5.2169 16.2941,8.9332 14.2216,12.8638 18.9383,23.9409 14.0787,19.0812 19.1527,18.7954 18.724,14.8648 12.4349,7.4324 c 0,0 47.6518,32.0514 120.8245,2.7419 51.8358,-17.1065 51.8358,-17.1065 51.8358,-17.1065 l -5.5743,-10.6483 -50.3116,19.8674 -21.7255,6.9321 -14.436,2.144 -26.5136,0.7146 -17.2231,-2.7157 -15.9368,-4.145 -18.6525,-7.9326 -22.6545,-15.0792 -19.3671,-19.5815 -34.5178,-45.5949 -16.2941,-14.5789 -15.4365,-9.1476 -25.4417,-7.6468 -19.8673,-1.3578 -17.3661,2.2868 -56.0288,14.6504 -5.7887,1.3579 z"
           id="path52" /><path
           style="opacity:1;fill:#53fc4a;fill-opacity:0.801136;stroke:#000000;stroke-width:2"
           d="m -2374.4698,1502.4731 c 8.147,-7.1466 8.147,-7.1466 8.147,-7.1466 l -1.8581,-16.1511 2.4298,-11.2916 16.2941,-61.1743 2.7157,-20.4391 -3.4303,-37.8766 2.7157,-12.7209 5.0025,-11.5773 34.1605,-28.0145 23.8694,-13.2925 -2.7157,-12.1491 -24.0123,14.0072 -43.3081,35.1609 -3.2874,7.8612 -0.8575,5.5743 2.2869,56.0289 -2.144,13.4354 -18.0093,58.1728 -2.5727,11.4345 -0.143,12.7208 1.2864,9.2905 z"
           id="path102" /><path
           style="opacity:1;fill:#53fc4a;fill-opacity:0.801136;stroke:#000000;stroke-width:2"
           d="m -2428.3547,1532.6315 c 7.7182,-3.1445 7.7182,-3.1445 7.7182,-3.1445 0,0 -23.1547,-36.0186 -2.5727,-74.8957 20.582,-38.8772 20.8679,-59.1733 20.8679,-59.1733 l 3.7162,-91.7615 c 0,0 -0.5718,-12.5779 27.1568,-33.7317 27.7286,-21.1537 63.7471,-50.8833 63.7471,-50.8833 l -0.8576,-5.1455 -28.3003,15.4365 -41.7357,30.873 -16.8659,16.2941 -10.5768,16.0083 c 0,0 -14.2931,52.5985 -6.5748,92.9049 l -5.4314,28.5862 -12.0062,26.2992 c 0,0 -21.4395,39.7348 1.7152,92.3333 z"
           id="path103" /><path
           style="opacity:1;fill:#53fc4a;fill-opacity:0.801136;stroke:#000000;stroke-width:2"
           d="m -2297.4302,1210.4656 1.4293,4.8597 22.0113,-3.1445 102.9102,-0.5717 24.2982,19.7244 c 0,0 27.1568,27.4427 76.8967,4.2879 l 16.2941,-6.8606 6.0031,-8.0041 16.5799,-5.1456 -5.1455,-11.1485 -28.0144,13.4354 -26.0134,15.4366 c 0,0 -33.1599,10.5768 -52.3126,-13.4355 l -24.87,-18.581 -104.9111,-1.1435 z"
           id="path104" /><path
           style="opacity:1;fill:#53fc4a;fill-opacity:0.801136;stroke:#000000;stroke-width:2"
           d="m -2023.869,1200.1203 3.4363,7.6811 30.5223,-11.9259 c 0,0 22.4369,-3.4363 44.4696,8.4896 22.0326,11.926 58.8211,10.9153 58.8211,10.9153 0,0 43.459,-11.1174 66.098,-0.4043 l 37.5971,-2.2235 12.9366,-13.9472 2.2234,-13.5431 -7.2768,-27.2881 -10.3089,-16.7772 -23.4476,-40.629 -7.8832,2.0213 c 0,0 -11.3195,3.6384 18.3942,43.6611 29.7138,40.0226 -16.3729,53.3635 -16.3729,53.3635 l -55.7891,3.2342 c 0,0 -44.4696,4.0426 -76.2047,-11.3196 -31.7351,-15.3622 -46.2888,-4.4469 -46.2888,-4.4469 z"
           id="path105" /><path
           style="opacity:1;fill:#53fc4a;fill-opacity:0.801136;stroke:#000000;stroke-width:2"
           d="m -1774.2329,1084.7015 c 15.7665,-7.0747 15.3623,-5.8619 15.3623,-5.8619 0,0 12.5323,-1.415 18.3942,11.5216 5.8619,12.9367 145.739,342.8202 145.739,342.8202 l -16.3729,-17.3835 c 0,0 -23.6497,3.8405 -30.3202,-11.7238 -6.6704,-15.5644 -14.5537,-96.2161 -24.054,-104.0993 l -11.1174,-25.469 -21.7294,-30.4212 -15.9687,-23.3466 -6.3672,-27.5913 -0.7075,-19.9103 c 0,0 -9.6014,-39.8205 -23.3465,-62.4596 -13.7452,-22.639 -29.5117,-26.0753 -29.5117,-26.0753 z"
           id="path106" /><path
           style="opacity:1;fill:#53fc4a;fill-opacity:0.801136;stroke:#000000;stroke-width:2"
           d="m -2315.6502,1609.9986 -0.4548,5.9125 c 0,0 35.1714,9.1465 58.8211,2.1729 23.6498,-6.9736 49.0176,-11.0669 49.0176,-11.0669 0,0 27.5409,-0.9096 42.3978,14.4527 14.8569,15.3622 52.8581,70.8481 78.125,76.9122 0,0 67.715,45.6824 140.8877,24.4582 l 37.5971,-9.7024 9.3545,0.301 10.2553,7.1823 c 0,0 2.3226,1.8581 3.1802,2.2154 0.8576,0.3573 5.1455,-0.8576 5.1455,-0.8576 l 3.5376,-2.4298 5.0383,-7.2895 8.0041,-4.7882 15.5437,-2.3583 -3.4303,-10.97 -28.4432,5.6458 -8.9332,-1.7866 c 0,0 -90.4037,22.583 -115.8454,17.1517 -25.4416,-5.4314 -96.6211,-15.0078 -142.3589,-89.6176 0,0 -16.0083,-31.7306 -54.8854,-30.3013 0,0 -79.1836,17.4375 -77.7543,18.0093 1.4293,0.5717 -35.0107,-4.7764 -34.8,-3.2458 z"
           id="path109" /><path
           style="opacity:1;fill:#53fc4a;fill-opacity:0.801136;stroke:#000000;stroke-width:2"
           d="m -2276.1329,1266.4204 4.4469,12.1281 c 0,0 51.1401,-15.7665 105.11,11.5217 0,0 30.3202,34.9693 93.184,12.128 62.8639,-22.8412 64.6831,-27.2881 64.6831,-27.2881 l -3.4363,-10.7131 -21.022,5.4576 c 0,0 -51.9486,46.0867 -108.142,25.4689 0,0 -74.7897,-60.0339 -134.8237,-28.7031 z"
           id="path110" /><path
           style="opacity:1;fill:#53fc4a;fill-opacity:0.801136;stroke:#000000;stroke-width:2"
           d="m -2001.1348,1258.6333 c 4.5737,9.1476 4.8596,9.1476 4.5737,9.1476 -0.2858,0 -0.2858,0 -0.2858,0 l 14.8648,-12.2921 12.5779,-2.001 c 0,0 57.0293,20.1532 82.6139,16.2941 25.5846,-3.8591 37.0191,-3.5733 37.0191,-3.5733 0,0 41.7357,15.5795 51.7409,9.8622 10.0051,-5.7172 19.2956,-14.5789 19.2956,-14.5789 0,0 33.3029,-0.8576 38.7343,5.7172 5.4313,6.5748 32.5882,28.872 38.5912,63.4613 6.0031,34.5892 0.5718,89.6175 7.1466,92.3332 l 12.7208,32.7311 7.2895,-3.2874 4.4308,10.0052 12.5779,-5.0026 -28.872,-71.4653 -4.7167,-60.8885 -5.8601,-15.1507 -28.7291,-38.3054 -17.5805,-17.4376 -19.1527,-3.5732 -22.0113,2.1439 -15.0078,12.7209 c 0,0 -12.1491,5.4313 -48.0247,-8.1471 0,0 -87.0448,0.7147 -91.6186,-3.8591 l -29.7295,-7.7183 -14.7219,4.0021 z"
           id="path111" /><path
           style="opacity:1;fill:#53fc4a;fill-opacity:0.801136;stroke:#000000;stroke-width:2"
           d="m -1861.4539,1642.896 c 0,0 22.7401,-4.8512 57.3051,27.1871 0,0 22.2348,19.8092 82.3699,10.7131 l 24.9636,-1.3138 -1.9203,-14.1494 -62.8639,4.3458 c 0,0 -31.8361,-4.8512 -47.5016,-18.3942 -15.6654,-13.543 -30.118,-16.1708 -30.118,-16.1708 l -25.3679,-3.2341 z"
           id="path112" /><path
           style="opacity:1;fill:#53fc4a;fill-opacity:0.801136;stroke:#000000;stroke-width:2"
           d="m -1684.8894,1665.434 -0.1011,11.8249 33.2512,-1.6171 c 0,0 29.2084,-9.5003 43.4589,-29.5116 14.2505,-20.0113 8.4897,-37.1928 8.4897,-37.1928 0,0 -1.2129,-17.4846 -18.8996,-34.4639 -17.6868,-16.9793 -10.3089,-45.8846 -10.3089,-45.8846 l -1.1117,-8.0853 -13.9473,-31.1288 -12.027,4.3459 5.3565,10.9153 -8.3885,2.0213 35.3735,83.4816 c 0,0 12.6334,35.4746 -19.1017,61.3478 0,0 -8.4897,13.7452 -42.044,13.9473 z"
           id="path113" /><path
           style="opacity:1;fill:#53fc4a;fill-opacity:0.801136;stroke:#000000;stroke-width:2"
           d="m -1840.9373,1691.3072 c 8.0854,19.6071 8.0854,19.6071 8.0854,19.6071 0,0 20.8199,30.9266 73.3749,32.3415 52.5549,1.415 64.4809,0.8086 64.4809,0.8086 v -11.7238 c 0,0 -85.5029,7.0747 -126.7384,-21.022 0,0 1.0107,-25.2669 -19.2028,-20.0114 z"
           id="path114" /><path
           style="opacity:1;fill:#53fc4a;fill-opacity:0.801136;stroke:#000000;stroke-width:2"
           d="m -1683.8787,1732.5427 1.6171,10.3089 c 0,0 29.5116,4.4469 59.0232,-45.6825 l 8.894,-7.8832 3.6384,-0.4043 c 0,0 33.1501,-29.5116 50.7358,-28.0967 17.5857,1.415 21.0219,0.8086 21.0219,0.8086 l 12.5324,-9.9046 c 0,0 -22.0327,-11.1174 -52.3529,3.8405 l -37.3948,32.948 -25.2669,23.8518 c 0,0 -23.2454,18.1921 -42.4482,20.2135 z"
           id="path115" /></g><g
         id="g203"
         style="display:inline"><path
           style="opacity:1;fill:#53fc4a;fill-opacity:0.801136;stroke:#000000;stroke-width:3"
           d="m -1821.2291,911.87645 22.0326,25.57002 c 0,0 12.8356,18.59638 11.0164,31.83619 l 6.8725,73.27374 0.8086,3.8406 1.0106,2.2235 60.7415,-25.3679 -4.0427,-10.2078 -10.511,4.8512 -3.7395,-8.1864 -15.3622,6.6704 -25.9743,-62.45956 15.059,-6.56938 -2.9309,-7.68111 185.5595,-77.41753 17.2437,41.05514 19.3671,-8.39718 19.0455,46.05942 15.7939,-7.07507 -8.5044,-21.51107 172.743,-72.56817 7.378,17.7373 3.0825,3.23415 4.3964,2.12242 7.479,-0.10107 11.9765,-6.46831 3.5879,-5.20496 0.1516,-8.18645 -10.7132,-23.80134 1.8192,-1.01067 -8.8433,-19.25332 -3.7395,1.71814 -1.516,0.65694 -13.4624,-4.14828 z"
           id="path4" /><path
           style="opacity:1;fill:#53fc4a;fill-opacity:0.801136;stroke:#000000;stroke-width:2;stroke-dasharray:none"
           d="m -1640.5564,945.18625 c 5.9674,12.57791 5.9674,12.57791 5.9674,12.57791 l -23.6908,11.36299 1.2864,3.10874 26.2992,-11.64885 2.5793,0.0796 7.8833,3.66369 13.6441,0.30321 17.7625,-8.46439 10.4605,-12.027 3.31,-11.79961 -0.076,-9.65192 -4.9018,-12.10281 -6.7968,2.75409 3.1078,7.25157 z"
           id="path53" /><path
           style="opacity:1;fill:#53fc4a;fill-opacity:0.801136;stroke:#000000;stroke-width:2;stroke-dasharray:none"
           d="m -1589.8696,906.07684 c 6.8428,-2.89435 6.8428,-2.89435 6.8428,-2.89435 l -2.3584,-4.82391 -7.8075,-8.82597 -4.413,-10.50541 -48.7573,20.65349 1.5901,2.87648 44.6537,-19.40909 6.8726,14.07362 z"
           id="path54" /><path
           style="opacity:1;fill:#53fc4a;fill-opacity:0.801136;stroke:#000000;stroke-width:2;stroke-dasharray:none"
           d="m -1682.185,913.99163 -2.4298,1.03625 23.1983,53.90104 2.653,-1.11174 z"
           id="path55" /><path
           style="opacity:1;fill:#53fc4a;fill-opacity:0.801136;stroke:#000000;stroke-width:2"
           d="m -1709.0445,934.61659 2.8299,7.17577 7.8833,-3.03202 -2.8299,-6.7715 z"
           id="path107" /><path
           style="opacity:1;fill:#53fc4a;fill-opacity:0.801136;stroke:#000000;stroke-width:2"
           d="m -1732.7039,944.08287 2.8299,7.17577 7.8833,-3.03202 -2.8299,-6.7715 z"
           id="path107-1" /><path
           style="opacity:1;fill:#53fc4a;fill-opacity:0.801136;stroke:#000000;stroke-width:2"
           d="m -1756.5344,953.47646 2.8299,7.17577 7.8832,-3.03202 -2.8299,-6.7715 z"
           id="path107-7" /><path
           style="opacity:1;fill:#53fc4a;fill-opacity:0.801136;stroke:#000000;stroke-width:2"
           d="m -1690.6893,998.96393 4.3951,10.89847 23.0833,-10.18381 -4.681,-10.39821 z"
           id="path108" /></g><g
         id="g202"
         style="display:inline"><path
           style="opacity:1;fill:#51fc48;fill-opacity:0.801136;stroke:#000000;stroke-width:3;stroke-dasharray:none;stroke-opacity:1"
           d="m -2476.2461,1183.7474 c -3.8406,2.6278 -2.4256,3.4363 -2.4256,3.4363 l -12.1281,84.2901 12.5323,2.8299 -0.8085,5.4576 61.2468,9.7025 2.6277,-7.2769 3.4363,-4.6491 z"
           id="path15" /><path
           style="opacity:1;fill:#51fc48;fill-opacity:0.801136;stroke:#000000;stroke-width:3;stroke-dasharray:none;stroke-opacity:1"
           d="m -2466.8031,1179.0209 c -3.8591,-5.1455 -3.8591,-5.1455 -3.8591,-5.1455 l 61.6031,-93.0479 211.9608,-52.1173 13.7451,35.1714 34.7672,-14.5537 6.064,12.9366 14.5537,6.4684 17.1814,42.6503 -42.6504,22.0327 -7.8832,-15.3622 -41.2355,19.8092 7.2769,17.5857 -18.5964,9.5003 -31.533,-73.7791 8.2875,-3.6384 -13.543,-34.565 -26.2775,12.128 16.5751,32.948 8.6918,-3.6385 39.2141,91.7691 -44.8739,0.4043 -40.4269,9.096 -45.6824,-98.6416 -57.2041,25.6711 37.597,82.8751 48.9166,-20.6177 6.064,14.1494 -26.8839,14.1495 -41.8418,28.9052 -17.7879,12.7345 -12.128,12.9366 -6.6705,-9.7025 32.948,-21.6284 -53.7678,-77.8218 -7.8833,5.2555 -4.6491,-6.6704 -14.9579,10.3088 4.4469,5.6598 z"
           id="path16" /><path
           style="opacity:1;fill:#51fc48;fill-opacity:0.801136;stroke:#000000;stroke-width:3;stroke-dasharray:none;stroke-opacity:1"
           d="m -2211.2477,1172.0236 c 20.4156,-9.7025 20.4156,-9.7025 20.4156,-9.7025 l 7.2768,17.3836 43.4589,-19.607 -7.2768,-14.3516 42.4482,-21.4262 5.2555,10.9152 9.9046,13.3409 13.9473,12.7345 16.367,10.278 20.7965,6.8607 2.8586,5.0025 -0.143,3.9306 -4.2879,5.0026 -12.0776,5.0026 -7.7897,3.5732 -9.362,5.36 -21.1538,11.9347 -6.7177,3.2159 -13.5784,1.1435 -8.7188,-2.0725 -12.6494,-8.29 -23.0833,-16.7229 -12.3635,-6.0746 -14.3645,-2.2869 -23.0119,0.2859 z"
           id="path19" /><path
           style="opacity:1;fill:#51fc48;fill-opacity:0.801136;stroke:#000000;stroke-width:3;stroke-dasharray:none;stroke-opacity:1"
           d="m -2095.2225,1051.3493 c 11.6227,4.2448 11.6227,4.2448 11.6227,4.2448 l 49.9273,-20.3145 16.1707,40.1237 -59.8318,23.6497 -19.506,-43.7621 z"
           id="path20" /><path
           style="opacity:1;fill:#51fc48;fill-opacity:0.801136;stroke:#000000;stroke-width:3;stroke-dasharray:none;stroke-opacity:1"
           d="m -2025.1829,1031.338 c 4.0427,7.8832 4.0427,7.8832 4.0427,7.8832 l 29.8148,-12.6334 12.0271,30.4213 6.4683,-2.6278 -14.3516,-37.6981 z"
           id="path21" /><path
           style="opacity:1;fill:#51fc48;fill-opacity:0.801136;stroke:#000000;stroke-width:3;stroke-dasharray:none;stroke-opacity:1"
           d="m -2074.7059,1105.7235 c 72.2631,-28.8042 72.2631,-28.8042 72.2631,-28.8042 l 21.8306,56.6987 c 0,0 -64.0767,39.2141 -94.0937,-27.8945 z"
           id="path22" /><path
           style="opacity:1;fill:#53fc4a;fill-opacity:0.801136;stroke:#000000;stroke-width:3;stroke-dasharray:none;stroke-opacity:1"
           d="m -2095.1832,990.92408 c 6.4318,13.72132 6.4318,13.72132 6.4318,13.72132 l -15.0077,6.146 -5.7172,-11.14854 11.5774,-21.58254 244.9832,-58.31573 11.7203,30.87304 9.8622,12.72083 5.5743,16.15117 -2.4298,16.15117 -10.1481,24.727 -4.4308,11.7203 -0.5717,13.4355 5.1455,7.5753 7.8612,10.7198 0.8575,1.1435 6.0031,-1.5723 1.7152,3.2875 -146.361,62.3177 -20.4391,-57.601 19.2956,-8.4329 13.0067,32.4452 107.198,-47.0242 1.2468,-0.5703 -40.4098,-95.33618 -16.8658,7.14654 -5.2884,-13.57842 z"
           id="path23" /><path
           style="opacity:1;fill:#53fc4a;fill-opacity:0.801136;stroke:#000000;stroke-width:3"
           d="m -1957.2551,1162.5839 c 120.0618,-51.598 120.0618,-51.598 120.0618,-51.598 l 3.8108,1.8375 2.6278,1.9456 2.6783,5.6598 4.2195,11.4458 6.1146,10.1826 11.1362,16.739 3.0015,4.9311 1.1434,6.5033 -2.7871,7.5039 -6.7177,7.218 -40.378,4.2165 -41.3069,1.5722 -28.7291,-5.4314 -29.3008,-8.147 -5.7172,-4.145 -1.7152,-3.7162 0.1429,-3.0015 z"
           id="path2" /></g><g
         id="g200"
         style="display:inline"><path
           style="opacity:1;fill:#51fc48;fill-opacity:0.801136;stroke:#000000;stroke-width:3;stroke-dasharray:none;stroke-opacity:1"
           d="m -2520.1093,1294.7193 c 15.6654,2.1224 15.6654,2.1224 15.6654,2.1224 l -48.4112,328.9739 29.1656,50.3183 -29.1579,25.0129 -25.8704,-4.4309 z"
           id="path14" /><path
           style="opacity:1;fill:#51fc48;fill-opacity:0.801136;stroke:#000000;stroke-width:3;stroke-dasharray:none;stroke-opacity:1"
           d="m -2423.0663,1302.6559 -4.002,28.0145 v 37.162 l -21.4396,-2.8587 1.0005,-9.4334 -8.7188,-0.5717 4.0021,-31.1589 -33.16,-4.5738 4.4309,-25.1558 z"
           id="path17" /><path
           style="opacity:1;fill:#51fc48;fill-opacity:0.801136;stroke:#000000;stroke-width:3;stroke-dasharray:none;stroke-opacity:1"
           d="m -2427.4971,1385.5558 c -0.7147,11.4344 -0.7147,11.4344 -0.7147,11.4344 l -3.5733,12.2921 -7.2894,19.5815 -6.7178,15.8653 -5.2884,18.438 -1.1434,26.7281 2.8586,23.7265 7.0036,23.1547 4.5738,8.8617 0.4023,0.8903 -98.3099,59.2836 -3.8591,-3.2874 22.1543,-149.0768 46.0236,6.5749 9.7193,-70.7507 8.8617,1.1434 0.8576,-8.29 z"
           id="path18" /><path
           style="opacity:1;fill:#51fc48;fill-opacity:0.801136;stroke:#000000;stroke-width:3;stroke-dasharray:none;stroke-opacity:1"
           d="m -2517.3805,1610.5545 c 8.3886,13.2398 8.3886,13.2398 8.3886,13.2398 l -13.7452,8.3886 8.995,15.1601 13.6441,-8.2875 19.6071,32.4426 -14.8569,12.4312 -16.1708,-18.3942 -1.9203,1.516 -25.2668,-43.8632 z"
           id="path24" /><path
           style="opacity:1;fill:#53fc4a;fill-opacity:0.801136;stroke:#000000;stroke-width:3;stroke-dasharray:none;stroke-opacity:1"
           d="m -2431.7765,1557.6963 c 22.2348,22.6391 22.2348,22.6391 22.2348,22.6391 l 22.8412,15.7665 -6.2662,9.5003 -17.5857,-9.0961 -23.8519,46.491 74.1834,36.7885 22.6391,-46.0867 -16.9793,-9.7025 5.4576,-8.4896 23.8519,11.5217 -27.2882,82.673 -91.5669,-0.6064 -38.0013,-63.8745 63.4702,-41.2355 -23.8519,-38.0013 z"
           id="path25" /><path
           style="opacity:1;fill:#53fc4a;fill-opacity:0.801136;stroke:#000000;stroke-width:3;stroke-dasharray:none;stroke-opacity:1"
           d="m -2580.0004,1709.6178 4.5062,0.2858 29.1074,34.3629 18.5964,-15.9686 -15.7665,-18.1921 14.9579,-12.3303 18.7985,21.4263 25.469,-22.0327 -7.0747,-5.4576 14.7558,-11.3195 21.6284,35.5757 98.2374,2.6277 11.1174,4.0427 -5.4576,15.9686 25.7721,8.995 4.9523,-16.0697 16.575,6.064 22.0327,-63.8745 5.5163,6.4144 1.7151,7.4324 -0.5717,8.5759 -3.1445,5.2884 -4.2879,5.1455 -2.4298,7.0036 0.8576,11.1486 5.5743,6.146 5.8601,4.288 8.4329,1.1434 7.7183,-1.1434 4.8596,-4.0021 7.4324,-7.7183 5.0026,-1.1434 6.4319,0.2859 7.0036,6.7177 10.291,12.0062 10.5769,5.2884 13.5154,2.0642 16.0192,-3.4868 14.2505,-13.1387 2.7793,-6.8726 3.3858,-7.6811 8.7929,-12.4818 1.3138,-12.1281 -3.1331,-11.926 -7.9337,-6.9231 -5.9125,-3.2846 -6.822,-1.8193 -8.5402,0.2022 -7.7316,-9.7025 -8.8434,-4.6996 -12.3808,0.2021 -0.7074,0.051 1.8697,9.5003 8.3886,0.1517 2.4761,0.6569 7.9338,7.5295 -8.9297,9.9682 -3.3588,8.4329 -5.3599,5.4314 -7.9327,2.5728 -11.5774,-6.1461 -8.9332,-0.5002 -9.0761,2.6442 -8.147,0.1429 -8.3615,-4.7167 -5.2169,-6.5748 -2.9301,-11.5059 -10.5054,-11.7918 2.0725,-6.2175 -45.7378,-14.7933 2.8586,-10.0766 23.5835,4.7881 25.0129,-0.7861 26.0134,-5.5743 1.7152,7.361 -14.9363,2.6442 10.0052,43.5938 42.1645,-9.7192 -8.4329,-42.4505 -16.0082,3.7162 -1.5924,-8.1465 23.7508,-4.649 14.2505,1.7181 7.3779,3.7395 8.3886,5.3566 37.1927,43.9642 31.0277,28.0967 54.2731,26.5807 26.0754,7.8833 23.6497,3.7394 38.3045,-0.7074 60.4382,-14.3516 6.1651,5.1545 -1.0106,33.8258 33.4664,0.7213 1.5722,-41.8787 4.0021,-3.7162 16.7229,-0.4288 32.3023,23.4406 22.5831,10.0052 17.8663,3.0015 69.1785,2.144 32.1594,-4.2879 23.1548,-10.8628 18.7239,-16.0082 17.4375,-24.4411 13.0067,-7.0037 15.1507,-14.293 11.7203,-5.0026 14.7219,-2.5728 17.2946,-0.1429 7.2894,-0.8576 16.2941,-14.1501 1.7152,-4.7167 0.22,-1.0014 h 13.6441 l 2.7288,-2.0214 3.3352,-1.0106 6.5694,1.4149 12.2291,11.3195 4.9523,3.2342 7.9843,0.5053 6.064,3.7395 3.9417,5.7609 1.9202,7.4789 8.7929,9.7025 2.4256,12.027 -2.2235,19.2028 3.9417,15.059 6.3672,11.6227 11.3195,10.6121 12.4313,8.1864 5.6598,1.3139 3.4363,3.4363 0.7074,4.447 -2.1224,2.8299 -6.5694,8.9949 -0.8085,11.8249 3.6384,9.3993 6.3673,5.9629 6.6704,3.5374 2.7288,0.1011 -0.5053,13.9472 2.1224,7.1758 7.58,9.5003 6.7716,5.963 -4.7502,7.6811 -1.7182,7.9843 -1.1117,7.5801 2.4256,12.1281 2.6278,5.7608 8.2108,11.0528 15.3294,8.147 6.8964,0.6075 12.5779,-0.7861 9.5406,-3.6447 6.2889,-4.9312 11.0799,-15.1427 1.6767,-14.8727 -1.4599,-14.9949 -17.0804,-19.1017 -3.032,-6.6704 0.3032,-7.1758 2.0213,-11.8249 -3.032,-11.6227 -8.0854,-9.0961 3.1331,-9.6014 -2.6277,-6.4683 -10.41,-10.7131 h -15.2611 l -7.1758,-7.1758 -2.4256,-8.5907 -8.2875,-8.0854 -13.8463,-0.5053 -3.2341,2.8299 -12.1281,1.0106 -10.1067,-3.2341 -11.4206,-10.511 -3.6384,-7.6811 -1.1118,-19.6071 3.7395,-10.612 1.2128,-5.5587 -10.9152,-11.0164 -0.8086,-8.1864 0.5054,-6.4683 -0.7075,-3.7395 -6.8726,-6.3673 -2.9309,-1.3138 -12.3302,1.1117 -6.3673,-0.6064 -6.4683,-7.0747 -2.9309,-4.7502 -5.2555,-5.5587 -5.7609,-0.3032 -16.6761,0.6064 -1.0106,-0.3032 8.7928,-10.2078 0.7075,-9.096 -3.8406,-5.7608 -5.8619,-5.2555 -7.8832,-1.516 -9.2982,1.1117 -7.479,8.995 0.6064,10.511 -12.1281,-9.6014 -4.3459,-8.7929 0.4043,-10.7131 0.6064,-14.7558 -4.7501,-9.5003 -33.5544,-22.7402 -9.1971,-21.7294 12.2291,-31.0277 -0.4042,-7.8832 -7.8833,-23.0434 7.2769,-4.6491 49.6533,116.7473 97.1928,-41.164 18.0093,39.7347 c 0,0 -25.682,87.8254 58.8875,120.6335 l 58.1337,142.1412 19.607,-7.0747 2.6278,7.2768 -12.5324,10.1067 -4.6491,14.1495 3.4363,11.1174 v 12.128 l -4.8512,10.9153 -9.096,8.0854 -12.9367,7.6811 -11.9259,8.8939 -14.1494,15.9686 -6.2662,21.2242 2.8299,29.7137 10.9153,18.6975 17.1814,15.3622 25.469,8.3886 24.4582,-1.3139 17.8889,-6.2661 18.5964,-12.9367 24.1551,-6.064 30.3202,-1.0107 28.0967,-8.4896 22.0326,-10.4099 24.3573,-1.2129 23.4476,4.5481 26.6817,-5.0534 16.9793,-10.8142 15.0796,-18.4768 7.1465,-22.0113 -3.1444,-19.7245 -30.8731,-62.0319 -16.2941,-13.4355 -22.8689,-6.0031 -12.0062,-10.0051 -3.7162,-15.4365 9.7193,-31.4448 0.5718,-27.7285 -39.5204,-87.9024 -4.4308,-4.2879 -15.7939,-11.363 -9.2905,-12.0777 -5.8601,-13.0067 -7.5754,-32.5882 -15.4365,-31.1589 -11.4344,-17.4375 -9.5764,-35.5897 -6.146,-13.1497 -23.1548,-22.583 -7.7182,-14.1502 8.4329,-4.145 -44.2299,-101.8898 -65.4916,27.4903 9.096,19.2027 -18.1921,7.6812 -7.8832,-19.8092 -24.054,11.1174 -3.6385,-7.6811 106.1207,-46.0867 17.99,5.8619 147.7603,293.4993 -10.3089,5.6598 14.7559,27.4903 7.2768,-4.0427 89.9499,182.3254 -17.1815,6.6704 62.66175,123.0999 -358.68005,76.4376 -2.4299,-4.8596 -3.1444,0.7147 -133.3544,-365.0451 -62.3892,14.5075 -40.2406,-19.196 -22.2348,21.3252 -7.2768,-0.5054 -2.931,3.4363 6.0641,44.7728 -7.6811,2.0214 3.0912,21.312 -954.0087,-20.827 -16.7006,-9.2779 -7.0747,-15.4633 z"
           id="path26" /><path
           style="opacity:1;fill:#53fc4a;fill-opacity:0.801136;stroke:#000000;stroke-width:2;stroke-dasharray:none"
           d="m -1336.0052,1408.9253 16.8783,38.3045 -17.4847,8.0854 -16.8782,-38.9109 z"
           id="path73" /><path
           style="opacity:1;fill:#53fc4a;fill-opacity:0.801136;stroke:#000000;stroke-width:2;stroke-dasharray:none"
           d="m -1314.5789,1459.56 -16.7772,7.0747 17.2825,41.8419 17.0804,-7.7822 11.5217,25.1657 c 0,0 30.8255,15.3622 41.2354,37.7992 l 35.5757,-16.474 -7.5801,-22.7401 -3.7394,-16.7772 -11.1174,-16.1707 -17.5858,-16.6761 -9.1971,-16.2719 -47.9059,21.1231 z"
           id="path74" /><path
           style="opacity:1;fill:#53fc4a;fill-opacity:0.801136;stroke:#000000;stroke-width:2;stroke-dasharray:none"
           d="m -1361.8058,1546.7816 3.2874,44.5944 -42.0216,19.1527 c 0,0 -2.001,-40.8782 38.7342,-63.7471 z"
           id="path75" /><path
           style="opacity:1;fill:#53fc4a;fill-opacity:0.801136;stroke:#000000;stroke-width:2;stroke-dasharray:none"
           d="m -1398.6819,1625.6793 43.5939,10.5769 4.7167,46.4525 c 0,0 -45.3091,-20.4391 -48.3106,-57.0294 z"
           id="path76" /><path
           style="opacity:1;fill:#53fc4a;fill-opacity:0.801136;stroke:#000000;stroke-width:2;stroke-dasharray:none"
           d="m -1346.7981,1540.2068 30.1584,34.3033 41.0211,-17.2946 c 0,0 -29.4437,-30.5871 -71.1795,-17.0087 z"
           id="path77" /><path
           style="opacity:1;fill:#53fc4a;fill-opacity:0.801136;stroke:#000000;stroke-width:2;stroke-dasharray:none"
           d="m -1265.6134,1568.9359 -23.0119,39.4488 29.5867,34.1605 c 0,0 19.5815,-42.8792 -6.5748,-73.6093 z"
           id="path78" /><path
           style="opacity:1;fill:#53fc4a;fill-opacity:0.801136;stroke:#000000;stroke-width:2;stroke-dasharray:none"
           d="m -1241.0294,1570.5081 35.0181,-17.7234 c 0,0 24.8699,34.8751 26.4422,58.6016 1.5722,23.7265 24.4411,46.4524 24.4411,46.4524 l 15.5795,10.434 34.875,77.1826 c 0,0 8.7188,27.4427 -5.2884,55.0283 l -1.8581,4.145 0.5717,10.291 c 0,0 -11.4344,6.4319 -23.4406,0.4288 0,0 -14.1501,-13.7214 -37.5908,-12.435 0,0 -18.581,2.2869 -22.583,7.4324 l -3.1445,-7.2895 20.2734,-8.054 -61.6511,-145.5369 c 0,0 17.7331,-47.347 -1.6445,-78.9573 z"
           id="path79" /><path
           style="opacity:1;fill:#53fc4a;fill-opacity:0.801136;stroke:#000000;stroke-width:2;stroke-dasharray:none"
           d="m -1272.4741,1852.7248 2.0725,4.7167 81.2561,-34.3749 -2.4298,-4.4308 c 0,0 23.2977,-18.4381 48.8823,3.1445 0,0 17.4375,10.8627 34.1604,3.0015 0,0 -1.4293,15.0077 32.7311,23.1548 0,0 20.8679,6.0031 28.8721,29.8725 l 21.0108,40.8782 c 0,0 5.4313,21.7255 -3.1445,34.3034 0,0 -13.7214,25.4416 -36.5903,28.872 -22.8689,3.4303 -28.1573,-1.4293 -28.1573,-1.4293 0,0 -30.5872,-5.7173 -56.3147,8.8617 -25.7275,14.5789 -37.3049,11.0056 -54.1708,10.7198 -16.8658,-0.2859 -38.3054,10.5768 -52.7414,20.8678 -14.436,10.2911 -109.6278,11.7204 -73.6093,-78.0401 0,0 2.2869,-8.5759 36.8761,-27.7286 0,0 14.2931,-10.0051 12.5779,-39.4489 0,0 -8.8617,-16.437 8.7188,-22.9403 z"
           id="path80" /><path
           style="opacity:1;fill:#53fc4a;fill-opacity:0.801136;stroke:#000000;stroke-width:2;stroke-dasharray:none"
           d="m -1206.0327,1779.7916 c 0,0 9.3993,-5.6597 11.5722,5.205 2.173,10.8647 -21.1736,8.0854 -11.5722,-5.205 z"
           id="path81" /><path
           style="opacity:1;fill:#53fc4a;fill-opacity:0.801136;stroke:#000000;stroke-width:2;stroke-dasharray:none"
           d="m -1294.6148,1817.4308 c 0,0 9.3992,-5.6598 11.5722,5.2049 2.1729,10.8648 -21.1736,8.0854 -11.5722,-5.2049 z"
           id="path81-2" /><path
           style="opacity:1;fill:#53fc4a;fill-opacity:0.801136;stroke:#000000;stroke-width:2;stroke-dasharray:none"
           d="m -1210.4421,1760.4608 c 0,0 9.3992,-5.6597 11.5722,5.205 2.1729,10.8647 -21.1736,8.0854 -11.5722,-5.205 z"
           id="path81-5" /><path
           style="opacity:1;fill:#53fc4a;fill-opacity:0.801136;stroke:#000000;stroke-width:2;stroke-dasharray:none"
           d="m -1304.48,1799.9004 c 0,0 9.3993,-5.6598 11.5722,5.2049 2.173,10.8648 -21.1736,8.0854 -11.5722,-5.2049 z"
           id="path81-1" /><path
           style="opacity:1;fill:#53fc4a;fill-opacity:0.801136;stroke:#000000;stroke-width:2;stroke-dasharray:none"
           d="m -1219.2725,1796.4677 v 0 c 0,0 3.4363,-7.2263 9.2477,-1.2128 5.8113,6.0135 -10.7637,12.8861 -9.2477,1.2128 z"
           id="path82" /><path
           style="opacity:1;fill:#53fc4a;fill-opacity:0.801136;stroke:#000000;stroke-width:2;stroke-dasharray:none"
           d="m -1241.5073,1820.168 c 0,0 4.3965,-5.0028 5.5082,1.415 1.1117,6.4177 -9.1971,2.6782 -5.5082,-1.415 z"
           id="path83" /><path
           style="opacity:1;fill:#53fc4a;fill-opacity:0.801136;stroke:#000000;stroke-width:2;stroke-dasharray:none"
           d="m -1263.2302,1825.8429 c 0,0 4.3965,-5.0028 5.5082,1.415 1.1117,6.4177 -9.1971,2.6782 -5.5082,-1.415 z"
           id="path83-8" /></g><g
         id="g201"
         style="display:inline"><path
           style="opacity:1;fill:#53fc4a;fill-opacity:0.801136;stroke:#000000;stroke-width:3"
           d="m -1614.2214,1017.3663 -87.6523,36.5188 -5.9316,6.5748 -1.5722,5.4671 -0.072,7.5038 2.537,7.0394 13.0781,30.4582 106.6765,251.1522 0.139,0.4485 19.7713,-9.2413 4.6491,-5.5082 3.6889,-7.4285 4.4975,-7.1252 4.4975,-5.4576 11.5889,-11.5697 0.6431,-3.466 -1.197,-3.6269 -4.0557,-14.5611 -5.61,-4.7882 -6.3247,-1.7509 -3.7876,-0.3573 -8.9332,-3.8234 -9.3262,-5.8244 -9.7551,-9.5049 -6.7892,-10.7913 -4.2879,-10.684 -17.2589,-37.8409 -2.7871,-7.6468 -1.7509,-12.8995 -0.8219,-10.2196 0.7147,-5.1455 5.7887,-17.5805 4.681,-16.2941 23.3901,-66.2135 4.124,-6.967 3.7877,-5.1812 1.7866,-2.5728 9.898,-9.2905 1.8047,-1.4259 -0.429,-3.3086 c 0,0 -8.4151,-9.8801 -10.0945,-14.4896 0,0 -21.7254,4.8596 -39.3059,-12.5779 z"
           id="path5" /><path
           style="opacity:1;fill:#53fc4a;fill-opacity:0.801136;stroke:#000000;stroke-width:3"
           d="m -1518.5832,1264.0454 21.6284,26.4796 -0.1516,3.6384 -2.1729,1.8697 -22.2348,9.652 -5.1545,2.6783 -3.1331,1.617 -3.0825,-1.2128 -5.5082,-17.6868 0.8086,-27.4903 z"
           id="path6" /><path
           style="opacity:1;fill:#53fc4a;fill-opacity:0.801136;stroke:#000000;stroke-width:3"
           d="m -1512.4686,1262.4283 19.9102,24.1551 1.895,1.3138 2.552,-0.3284 12.7345,-15.6402 5.4576,-20.0619 0.3032,-7.6305 -2.3751,-1.5666 -33.807,-0.3032 -0.1516,6.1146 -6.4683,-0.2021 z"
           id="path7" /><path
           style="opacity:1;fill:#53fc4a;fill-opacity:0.801136;stroke:#000000;stroke-width:3"
           d="m -1459.9894,1247.6977 5.7861,0.278 -0.025,3.6131 1.5918,0.025 0.101,3.8153 2.931,0.2021 v -1.6676 l 3.7395,-0.025 0.2526,13.1893 -4.1437,6.9737 -8.8939,12.027 -17.99,16.7771 -24.9131,18.3943 -4.0427,-12.6334 c 0,0 19.4049,-6.6705 27.7935,-18.5964 8.3886,-11.926 11.8249,-16.1708 11.8249,-16.1708 z"
           id="path8" /><path
           style="opacity:1;fill:#53fc4a;fill-opacity:0.801136;stroke:#000000;stroke-width:3"
           d="m -1509.9419,1168.6884 c 25.1657,28.1978 25.1657,28.1978 25.1657,28.1978 l 13.0567,26.872 -0.072,3.0015 -2.5728,2.4656 -30.7301,-0.7504 -0.3573,-6.5748 -5.8601,-0.1072 v -16.0082 l -7.0394,0.072 0.1787,-18.2952 2.4298,-9.3619 2.6085,-6.4319 z"
           id="path9" /><path
           style="opacity:1;fill:#53fc4a;fill-opacity:0.801136;stroke:#000000;stroke-width:3"
           d="m -1556.7633,1261.2775 1.7152,-56.6006 30.3013,0.8576 c 0,0 -2.2869,-25.5131 9.8622,-41.2355 l -0.616,-2.7359 c 0,0 -30.5429,-26.9937 -11.3902,-68.4436 l 12.0471,-14.7853 -0.6064,-3.0825 -42.4483,-23.5487 -1.4149,-0.6064 -1.2734,0.2782 -9.8265,8.5133 -8.0041,11.1486 -2.4233,4.5182 -1.3139,2.6277 -22.1843,61.3984 -10.9152,36.6874 -0.3538,2.4004 3.2847,24.0793 3.2594,3.3352 16.3477,0.5811 5.5839,3.6132 2.9261,5.1191 -0.2858,41.8787 3.3231,2.4656 2.2154,0.5717 z"
           id="path10" /><path
           style="opacity:1;fill:#53fc4a;fill-opacity:0.801136;stroke:#000000;stroke-width:3"
           d="m -1607.2697,1214.1181 c 13.8967,30.1181 13.8967,30.1181 13.8967,30.1181 l 1.0107,0.7074 1.9203,-0.5053 0.4042,-28.3999 -2.9309,-2.931 -13.0882,-0.4042 z"
           id="path11" /><path
           style="opacity:1;fill:#53fc4a;fill-opacity:0.801136;stroke:#000000;stroke-width:3"
           d="m -1578.8193,1266.2688 c 26.227,1.1118 26.2775,1.1118 26.2775,1.1118 l 0.3032,14.4021 -2.1224,1.3138 -11.8754,-3.8405 -13.4925,-10.2584 -0.8085,-1.4654 z"
           id="path12" /><path
           style="opacity:1;fill:#53fc4a;fill-opacity:0.801136;stroke:#000000;stroke-width:3"
           d="m -1451.2447,1215.7898 -0.1072,5.8602 -2.1082,-0.036 v 3.5732 l -8.0399,-0.2501 -12.0072,-27.9502 -3.1836,-4.4974 -9.0359,-11.182 -24.7985,-27.8 -5.5743,-6.9322 -3.1445,-5.074 -3.2159,-7.3967 -1.5365,-10.684 0.1787,-10.291 3.609,-11.506 4.8953,-8.6473 9.9694,-10.0051 17.8664,-10.5412 71.4271,-45.9435 8.8434,-2.3499 8.894,-0.5053 7.2515,0.1516 16.1961,2.6025 8.9697,0.4548 13.164,-5.7861 15.3875,-7.5801 13.4167,-6.5441 14.4779,0.379 8.4138,5.0029 4.5228,6.0893 3.1836,5.9629 0.8591,4.6491 10.5362,61.6511 3.2594,9.8288 3.5374,4.9775 6.3167,7.4285 10.0562,9.2224 9.3992,9.5003 2.0214,5.4071 1.8697,6.6957 -0.5053,6.5188 -3.5121,10.0815 -2.9562,9.8035 -9.4498,-3.7395 6.7462,-23.5234 -30.5223,-14.9579 -15.8153,-104.3955 -29.8368,-4.6452 -12.1583,30.0061 -73.4215,-9.5671 -65.0335,57.887 -3.5732,6.7177 -5.9316,12.0777 -0.9291,22.2257 3.5018,13.0067 15.3651,25.5131 z"
           id="path13" /><path
           style="opacity:1;fill:#53fc4a;fill-opacity:0.801136;stroke:#000000;stroke-width:3"
           d="m -1562.5222,1024.7433 c 0,0 8.2245,13.9911 12.6196,14.7415 4.3951,0.7504 208.8441,-80.56154 208.8441,-80.56154 l 16.772,-1.40923 15.0792,3.57327 c 0,0 24.9486,10.62097 30.5073,29.31842 5.5587,18.69748 80.8357,195.04708 80.8357,195.04708 l 2.9238,1.832 3.5626,-1.8193 c 0,0 9.5003,-10.0056 23.3465,-16.3223 -5.3917,-15.2781 -118.2712,-278.77087 -118.2712,-278.77087 l -4.3594,-4.07353 -4.8239,-1.57223 -5.7173,-0.50026 -242.5963,102.94526 c 0,0 5.5082,17.93943 -18.7227,37.57173 z"
           id="path40" /><path
           style="opacity:1;fill:#53fc4a;fill-opacity:0.801136;stroke:#000000;stroke-width:3"
           d="m -1539.3257,1042.3077 -0.2144,3.2159 37.8766,21.7969 5.7172,-0.2858 74.1096,-47.9533 c 0,0 19.8674,-10.2195 49.7399,-0.8576 l 5.6458,-0.7146 11.8632,-6.7178 0.6253,-3.9484 -2.8229,-3.6448 -4.3057,-6.80702 -2.3227,-8.8617 -0.125,-10.13022 -1.5901,-2.35835 -3.7877,-0.1072 z"
           id="path41" /><path
           style="opacity:1;fill:#53fc4a;fill-opacity:0.801136;stroke:#000000;stroke-width:3"
           d="m -1355.6628,970.0912 c 0,0 -12.289,21.11874 10.5084,36.3409 h 0.9469 l 17.5984,-8.29002 11.6488,-1.07198 7.9684,1.35784 10.291,5.75296 8.29,8.8974 4.1093,9.1119 2.3941,11.9347 2.1797,15.4365 6.5865,38.1721 2.2752,7.6372 3.8591,5.7529 5.9674,2.5728 22.8689,-0.1787 -0.2502,-3.1087 -46.8485,-112.52996 -6.2502,-8.63955 -6.3604,-6.21748 -7.5754,-5.03831 -12.0061,-4.14499 -11.506,-1.14344 -8.8974,1.10771 z"
           id="path42" /><path
           style="opacity:1;fill:#53fc4a;fill-opacity:0.801136;stroke:#000000;stroke-width:3"
           d="m -1518.5293,1315.1624 c 5.7887,11.5774 5.7887,11.5774 5.7887,11.5774 l -18.7239,16.7943 -9.6479,13.8643 -6.2889,13.507 -0.2859,1.1434 6.9322,16.0797 45.1661,-19.653 4.7881,12.6494 -59.3877,25.799 -8.8259,0.4288 -6.0031,-2.2869 -5.8602,-4.6452 -12.6136,-29.5152 13.0067,-5.3599 c 0,0 6.6463,-3.6448 6.5748,-3.5733 -0.072,0.072 7.0751,-6.289 7.0751,-6.289 l 3.2874,-4.7881 4.5737,-8.7903 5.9317,-8.5044 12.5064,-11.5059 9.8622,-6.8607 z"
           id="path43" /><path
           style="opacity:1;fill:#53fc4a;fill-opacity:0.801136;stroke:#000000;stroke-width:3"
           d="m -1483.7257,1363.7588 5.9316,12.3635 127.9932,-54.7213 18.5823,-37.6834 8.7188,-7.7182 31.7306,-10.7198 9.2905,-8.4329 3.4303,-7.6468 6.2175,-19.5101 -11.363,-3.2159 -6.6463,20.1532 -4.5023,4.7167 -5.5028,0.3573 -33.3029,-5.074 -2.4298,2.001 -25.0129,62.1034 z"
           id="path44" /><path
           style="opacity:1;fill:#53fc4a;fill-opacity:0.801136;stroke:#000000;stroke-width:3"
           d="m -1255.1795,1109.2707 20.2962,0.7861 2.001,3.4304 33.3743,81.2561 -6.0745,11.9347 -25.2988,-8.0756 -0.7682,-0.6075 1.4114,-3.8948 -6.0031,-1.7509 8.2264,-26.0864 1.4149,-6.5189 -0.3537,-12.6839 -2.9309,-7.9843 -3.2847,-4.7502 -23.195,-23.2455 0.2022,-1.1622 z"
           id="path45" /><path
           style="opacity:1;fill:#53fc4a;fill-opacity:0.801136;stroke:#000000;stroke-width:3"
           d="m -1164.2756,1177.5201 15.7939,36.5903 -8.9332,-7.0036 -7.4324,-1.9296 -9.0046,1.6437 -7.0036,6.8607 -2.0011,4.2879 -0.929,7.0751 1.5722,6.7177 5.0741,5.5028 5.7172,3.1445 7.9327,0.8576 4.1449,-0.1429 -37.019,15.6509 c 0,0 -25.3702,-52.1697 32.0879,-79.2551 z"
           id="path46" /><path
           style="opacity:1;fill:#53fc4a;fill-opacity:0.801136;stroke:#000000;stroke-width:3"
           d="m -1339.2942,1317.1991 134.4978,-57.2794 c 0,0 -5.6458,-9.2905 -5.7172,-31.6592 l -27.7286,-8.4329 -1.5722,3.8591 -6.1461,-2.001 -17.8663,54.671 -2.3584,2.4298 -21.654,9.362 -4.002,-1.2864 c 0,0 -1.4293,-2.5013 -1.5008,-2.5013 -0.072,0 -0.072,0 -0.072,0 l -0.1429,-2.3583 -3.5733,-4.5738 -3.2159,-0.072 -2.0725,-0.2144 -16.3656,5.0025 -5.4313,4.6453 -2.7157,2.9301 z"
           id="path47" /><path
           style="opacity:1;fill:#53fc4a;fill-opacity:0.801136;stroke:#000000;stroke-width:3"
           d="m -1256.6088,1213.6101 c 2.5728,0.3573 2.68,0.3037 2.68,0.3037 l 0.5895,1.0184 -0.7503,2.7157 -16.8283,51.8046 -2.3334,0.053 -1.4114,-0.5092 0.1876,-3.216 17.0087,-51.2764 z"
           id="path48" /><path
           style="opacity:1;fill:#53fc4a;fill-opacity:0.801136;stroke:#000000;stroke-width:3"
           d="m -1237.1614,1155.9539 c 1.7687,0.2527 1.7687,0.2527 1.7687,0.2527 l 0.7075,2.5772 -10.3089,32.5437 -1.1623,1.1622 -2.2235,0.2527 c 0,0 -1.617,-1.516 -1.3644,-1.2633 0.2527,0.2526 -0.1516,-0.657 -0.1516,-0.657 l 11.168,-34.0091 z"
           id="path49" /></g><g
         id="g199"
         style="display:inline"><path
           style="opacity:1;fill:#53fc4a;fill-opacity:0.801136;stroke:#000000;stroke-width:2"
           d="m -1235.4193,1320.701 -1.7152,1.8223 0.1429,5.0026 6.7893,12.3635 67.7296,-28.9994 -8.237,-17.9899 z"
           id="path59" /><path
           style="opacity:1;fill:#53fc4a;fill-opacity:0.801136;stroke:#000000;stroke-width:2"
           d="m -1149.3339,1283.9556 7.9338,18.2426 83.5826,-35.3735 10.1573,23.9024 17.7878,-7.7822 -8.8434,-20.5672 -6.5694,-7.7821 -8.6918,-4.3965 -11.1174,-1.4149 -6.1145,1.8192 z"
           id="path84" /><path
           style="opacity:1;fill:#53fc4a;fill-opacity:0.801136;stroke:#000000;stroke-width:2"
           d="m -1057.7164,1310.1826 5.9124,-2.6278 30.5728,71.5556 -7.0747,2.5773 z"
           id="path85" /><path
           style="opacity:1;fill:#53fc4a;fill-opacity:0.801136;stroke:#000000;stroke-width:2"
           d="m -1042.1015,1303.0573 17.3835,-7.6811 30.10119,71.3842 -17.43759,7.5753 z"
           id="path86" /><path
           style="opacity:1;fill:#53fc4a;fill-opacity:0.801136;stroke:#000000;stroke-width:2"
           d="m -989.18545,1379.4812 -17.86635,7.4324 10.29102,23.798 -82.32812,34.4463 3.8592,9.5763 82.89978,-35.9471 c 0,0 9.36196,-7.218 9.14756,-15.2221 l 0.71466,-8.0041 -1.35785,-5.5028 z"
           id="path87" /><path
           style="opacity:1;fill:#53fc4a;fill-opacity:0.801136;stroke:#000000;stroke-width:2"
           d="m -1050.3241,1406.7095 3.7877,-1.608 2.68,6.3962 -6.9322,3.0015 3.5376,9.0404 -6.3605,2.0368 -4.3951,-13.1854 8.4687,-2.8229 z"
           id="path88" /><path
           style="opacity:1;fill:#53fc4a;fill-opacity:0.801136;stroke:#000000;stroke-width:2"
           d="m -1159.9876,1479.8186 59.4591,-26.0849 3.7877,10.291 -52.5985,22.4401 c 0,0 -5.3599,2.0011 -8.2185,-1.6437 z"
           id="path89" /><path
           style="opacity:1;fill:#53fc4a;fill-opacity:0.801136;stroke:#000000;stroke-width:2"
           d="m -1179.9979,1428.292 13.1496,-5.4313 12.7208,29.5866 21.8684,-8.5758 2.2869,6.8607 -29.1579,11.5773 -5.5743,-14.0072 -9.0046,-5.5743 z"
           id="path90" /><path
           style="opacity:1;fill:#53fc4a;fill-opacity:0.801136;stroke:#000000;stroke-width:2"
           d="m -1196.7345,1349.6999 12.3302,30.9266 -13.7451,6.2661 -6.0641,-13.1387 2.7289,-10.8142 -6.0641,-15.059 28.8042,-11.926 2.7288,5.963 z"
           id="path91" /><path
           style="opacity:1;fill:#53fc4a;fill-opacity:0.801136;stroke:#000000;stroke-width:2"
           d="m -1106.603,1297.1888 4.8239,-2.2511 3.4303,8.7545 7.5754,-2.9658 2.7156,6.9679 -4.1092,1.5365 -1.0363,-2.7157 -8.8259,3.5375 z"
           id="path92" /></g><g
         id="g198"
         style="display:inline"><path
           style="opacity:1;fill:#53fc4a;fill-opacity:0.801136;stroke:#000000;stroke-width:2"
           d="m -974.68968,1210.0249 c 0,0 19.40492,31.3308 42.95359,40.4269 23.54867,9.0961 33.15006,14.958 33.15006,14.958 l 2.65302,0.1263 34.74201,-30.4864 c 0,0 -27.2283,-29.7296 -26.94244,-62.0319 z"
           id="path93" /><path
           style="opacity:1;fill:#53fc4a;fill-opacity:0.801136;stroke:#000000;stroke-width:2"
           d="m -874.91235,1168.5155 22.29719,-10.0052 5.28844,1.8581 10.79127,27.8715 35.58974,-15.0792 -10.9342,-24.9414 8.64731,-2.7157 4.00206,1.5008 6.50335,5.217 81.11562,390.517 -16.17077,25.671 -327.71066,90.9101 -3.032,-1.7687 -5.1544,-10.3089 24.5593,-12.4313 -12.6334,-23.296 -23.6497,12.3302 -2.5267,-5.4071 -9.3487,5.1545 -32.4426,-64.2788 22.5516,-17.2485 24.0838,-12.3635 2.9301,-0.2859 4.2165,9.0761 -7.4324,14.5075 4.4308,19.7959 16.2227,12.0062 21.0822,-0.6432 15.0078,-14.6504 2.2869,-19.2957 -11.4345,-16.5085 -16.437,-5.2884 -3.0016,-6.289 40.0206,-0.5002 21.79695,11.22 6.07455,-1.3578 16.93729,-8.3614 1.35784,0.1429 27.65709,11.2915 6.71775,0.6432 7.43239,-0.5717 5.86016,29.801 -6.43188,1.1435 7.93265,32.2309 22.94038,-7.4324 -9.14756,-29.944 -8.43291,1.7866 -5.64577,-28.4432 c 0,0 77.75431,-4.2879 119.49007,-70.8936 l 11.1486,6.7177 c 0,0 -8.43291,19.7245 11.29152,29.4437 19.72444,9.7193 29.87252,-12.0061 29.87252,-12.0061 0,0 6.14602,-16.58 -9.86222,-26.871 -16.00824,-10.291 -26.58511,2.7157 -26.58511,2.7157 l -11.57739,-8.5759 c 0,0 74.60983,-128.6376 -54.59953,-218.3981 0,0 -37.01905,-28.4432 -33.94604,-67.3918 z"
           id="path94" /><path
           style="opacity:1;fill:#53fc4a;fill-opacity:0.801136;stroke:#000000;stroke-width:2"
           d="m -885.77508,1275.3562 35.29708,-30.362 c 0,0 66.30013,34.3628 72.36416,121.2807 l -70.64602,-4.9523 c 0,0 2.21926,-52.5206 -37.01522,-85.9664 z"
           id="path95" /><path
           style="opacity:1;fill:#53fc4a;fill-opacity:0.801136;stroke:#000000;stroke-width:2"
           d="m -849.8716,1371.1261 72.36417,4.6491 c 0,0 0,40.2248 -18.79852,69.7364 l -60.43823,-44.4696 c 0,0 5.65977,-13.543 6.87258,-29.9159 z"
           id="path96" /><path
           style="opacity:1;fill:#53fc4a;fill-opacity:0.801136;stroke:#000000;stroke-width:2"
           d="m -987.47028,1215.7541 c 0,0 34.58923,47.0242 58.1728,49.5969 23.58356,2.5728 24.01236,22.4402 24.01236,22.4402 0,0 2.85861,30.0154 -21.01082,40.4493 -23.86943,10.434 -40.73525,1.4294 -52.31264,-13.0067 l -28.30032,-67.7491 c 0,0 -5.7732,-25.7993 19.43862,-31.7306 z"
           id="path97" /><path
           style="opacity:1;fill:#53fc4a;fill-opacity:0.801136;stroke:#000000;stroke-width:2"
           d="m -967.10964,1341.4124 c 0,0 65.69373,25.8732 74.58765,-51.5444 0,0 71.55563,56.1934 1.21281,142.3028 0,0 -43.25679,48.5123 -107.13131,27.8945 l 26.68176,-12.8355 c 0,0 32.34153,-25.3679 21.83053,-64.3799 z"
           id="path98" /><path
           style="opacity:1;fill:#53fc4a;fill-opacity:0.801136;stroke:#000000;stroke-width:2"
           d="m -1077.9804,1494.3271 9.096,19.8092 c 0,0 -51.14,20.9209 -56.7998,33.6554 l -12.5323,-24.054 0.7074,-2.5267 1.6171,-3.2341 z"
           id="path99" /><path
           style="opacity:1;fill:#53fc4a;fill-opacity:0.801136;stroke:#000000;stroke-width:2"
           d="m -1065.8524,1488.6674 10.1068,22.7401 c 0,0 25.6711,-7.479 54.6774,-2.6277 l 18.89954,9.9045 18.69745,-8.6917 7.78218,0.2021 28.29883,11.6227 27.1871,-2.0213 -22.13373,-49.7251 c 0,0 -35.87889,21.5273 -94.29577,-2.1224 l -50.9379,20.8198 z"
           id="path100" /><path
           style="opacity:1;fill:#53fc4a;fill-opacity:0.801136;stroke:#000000;stroke-width:2"
           d="m -885.77508,1471.0283 -11.07713,4.9311 -0.92905,-2.6442 -11.43446,4.6453 -4.85964,-11.6489 c 0,0 37.09052,-18.581 52.66996,-53.599 2.10823,-2.2512 2.10823,-2.2512 2.10823,-2.2512 l 1.25065,0.2859 56.38616,42.6291 c 0,0 -24.44115,49.0967 -89.90342,64.1044 l -10.64833,-23.7265 11.43445,-4.6452 -0.78612,-2.7157 10.64834,-3.6448 1.42931,5.4314 19.93883,10.0052 21.654,-6.9322 11.57739,-15.7938 -0.21439,-23.5121 -15.65092,-15.1507 -22.58305,-2.2154 -17.08022,11.363 -5.93162,22.1542 z"
           id="path101" /></g><g
         id="g197"
         style="display:inline"><path
           style="opacity:1;fill:#53fc4a;fill-opacity:0.801136;stroke:#000000;stroke-width:2;stroke-dasharray:none"
           d="m -1062.5171,1116.6387 13.4419,31.9373 -36.8895,16.2718 -13.6441,-32.5436 z"
           id="path56" /><path
           style="opacity:1;fill:#53fc4a;fill-opacity:0.801136;stroke:#000000;stroke-width:2;stroke-dasharray:none"
           d="m -1081.6188,1172.8321 c 36.081,-16.0697 36.081,-16.0697 36.081,-16.0697 l 8.0853,18.3943 71.55567,-30.8255 5.65977,12.3302 -93.18404,40.3258 -12.8355,-0.6569 -8.2875,-6.4178 c 0,0 -8.4897,-16.4234 -7.0747,-17.0804 z"
           id="path57" /><path
           style="opacity:1;fill:#53fc4a;fill-opacity:0.801136;stroke:#000000;stroke-width:2;stroke-dasharray:none"
           d="m -949.37925,1137.2851 5.50284,12.9352 55.95737,-23.8694 11.64885,-30.873 15.22212,-23.2263 15.86531,-17.1516 2.35836,-4.145 4.9311,-20.6535 -1.71516,-3.4304 -18.79539,0.8576 -3.5018,2.9301 -2.0725,11.363 -4.14499,6.6463 -7.07507,7.7182 -7.0036,4.3594 -5.5743,1.4293 -6.43188,0.8576 -28.80054,-0.5717 -6.64628,-1.9296 -1.07061,4.1336 -3.71422,0.9854 9.39435,21.6448 19.15271,-7.6111 14.57893,33.8032 z"
           id="path58" /><path
           style="opacity:1;fill:#53fc4a;fill-opacity:0.801136;stroke:#000000;stroke-width:2;stroke-dasharray:none"
           d="m -1123.3259,1020.5107 6.6105,15.7403 -2.6799,0.7504 -1.0541,9.1654 6.539,6.2353 9.362,-3.0908 1.5008,-9.4871 -7.0572,-5.8601 -3.3232,0.8397 -1.8402,-5.6458 14.4717,-5.9673 21.7549,52.6169 -37.6223,16.2718 -25.0142,-58.9728 z"
           id="path60" /><path
           style="opacity:1;fill:#53fc4a;fill-opacity:0.801136;stroke:#000000;stroke-width:2;stroke-dasharray:none"
           d="m -1120.1002,1017.896 2.9057,6.6452 14.9074,-6.3167 -6.342,-14.6042 c 0,0 -6.2156,9.5508 -11.4711,14.2757 z"
           id="path61" /><path
           style="opacity:1;fill:#53fc4a;fill-opacity:0.801136;stroke:#000000;stroke-width:2;stroke-dasharray:none"
           d="m -1129.3352,993.40615 3.8026,10.92155 c 0,0 9.7105,-15.54758 19.4298,-25.12394 0.2859,-2.78715 0.3216,-2.80501 0.3216,-2.80501 l -8.7545,-18.70606 -3.1802,-1.82237 -19.1527,-4.68098 -7.5039,-2.64421 -18.2236,-16.68716 -1.1792,-3.03728 -0.6075,-10.07662 12.435,-28.6576 -1.8224,-2.35836 -6.3604,3.14448 -7.926,-17.5533 -34.565,15.13482 55.7836,131.94939 18.9026,-13.4712 -4.7525,-12.07763 -7.6468,3.28741 -12.9352,-30.7301 17.4733,-7.61106 13.9357,30.37277 -7.4324,3.21594 z"
           id="path62" /><path
           style="opacity:1;fill:#53fc4a;fill-opacity:0.801136;stroke:#000000;stroke-width:2;stroke-dasharray:none"
           d="m -1078.8387,973.37934 11.6846,-7.6468 c 0,0 11.4344,22.72599 30.2655,19.83164 18.8312,-2.89435 27.2296,-11.93563 28.8467,-33.15975 0,0 25.2163,3.23415 36.13157,24.20561 l -90.06257,38.11196 z"
           id="path63" /><path
           style="opacity:1;fill:#53fc4a;fill-opacity:0.801136;stroke:#000000;stroke-width:2;stroke-dasharray:none"
           d="m -1061.7228,962.6238 v 0 c 0,0 28.5147,-11.22006 47.5245,-10.7198 0.4288,9.64782 0.4967,14.64984 -9.7617,22.98789 -10.2583,8.33805 -22.8412,4.59856 -27.1871,1.21281 -4.3459,-3.38575 -8.7201,-7.55688 -10.5757,-13.4809 z"
           id="path64" /><path
           style="opacity:1;fill:#53fc4a;fill-opacity:0.801136;stroke:#000000;stroke-width:2;stroke-dasharray:none"
           d="m -957.60931,973.83069 c 0,0 -11.1174,-26.8839 -43.86319,-33.6554 7.3779,-8.13592 7.3779,-8.13592 7.3779,-8.13592 h -0.0253 l 1.37704,-1.41494 c 0,0 18.63656,-10.45105 30.9286,-0.2315 12.29204,10.21954 12.7923,22.36865 12.7923,22.36865 0,0 1.90647,12.12277 -8.58739,21.06911 z"
           id="path65" /><path
           style="opacity:1;fill:#53fc4a;fill-opacity:0.801136;stroke:#000000;stroke-width:2;stroke-dasharray:none"
           d="m -1023.7578,938.91195 16.4234,-0.25267 c 0,0 10.20778,-20.31452 33.20059,-18.44478 22.9928,1.86974 35.68876,26.61546 29.61421,43.19542 -6.07456,16.57996 -11.79179,14.436 -10.79127,16.00824 1.00051,1.57224 5.93162,20.2247 3.57327,36.30444 0,0 12.29204,-1.2864 21.79693,7.5038 0,0 6.78921,-30.30129 32.8026,-29.01491 26.01339,1.28637 32.87406,20.43911 34.58923,23.94091 1.71517,3.5018 23.44063,-1.2864 23.44063,-1.2864 l 1.57224,-3.7162 c 0,0 -6.43188,-19.65297 -36.16147,-33.51725 -29.72958,-13.86427 -35.30388,-39.73473 -35.30388,-39.73473 0,0 -6.28895,-11.00567 -2.14396,-35.44682 4.14499,-24.44115 0.14293,-18.72392 19.00978,-40.87818 18.86685,-22.15426 12.5779,-38.30543 12.5779,-38.30543 0,0 -4.00206,-31.58768 -37.16198,-31.87354 -33.15992,-0.28587 -40.59232,31.58768 -39.02008,32.01647 1.57224,0.4288 -1.42931,57.60108 -53.59904,58.88745 l -18.1586,50.16722 1.0106,2.98148 z"
           id="path66" /><path
           style="opacity:1;fill:#53fc4a;fill-opacity:0.801136;stroke:#000000;stroke-width:2;stroke-dasharray:none"
           d="m -1222.7088,840.77562 14.6548,34.41341 34.3629,-14.65475 -6.2157,-14.35156 44.0148,-18.59637 18.5964,43.55999 -20.8704,10.00566 -17.1049,39.95043 0.536,5.18124 14.293,13.72135 24.87,7.03933 14.8648,-5.86016 -2.7872,-7.86118 29.6581,-13.18536 10.0767,24.44115 -30.3014,12.3635 -4.1092,-9.75502 -9.5406,4.53805 8.0398,16.07971 4.3951,1.10771 15.2222,-11.18433 11.756,-6.39615 20.8679,-8.18278 4.8954,-6.43188 19.2313,-54.5044 c 0,0 -27.1997,-6.20542 -38.2054,-36.07793 l -5.4557,-10.33722 -10.9658,-9.72772 -16.2971,-7.17578 -13.0124,-5.1039 -10.2583,-8.38858 -15.5139,-19.25332 -8.6917,-10.35939 c 0,0 -10.0562,-7.78218 -19.6576,-1.71814 -9.6014,6.06403 -26.0754,18.44477 -26.0754,18.44477 l -15.9686,37.09169 z"
           id="path67" /><path
           style="opacity:1;fill:#53fc4a;fill-opacity:0.801136;stroke:#000000;stroke-width:2;stroke-dasharray:none"
           d="m -912.43166,1009.648 c 0,0 32.30234,-21.58253 41.30698,16.7229 0,0 3.43033,28.3003 -30.15838,27.8715 0,0 -36.30441,-14.2931 -11.1486,-44.5944 z"
           id="path68" /><path
           style="opacity:1;fill:#53fc4a;fill-opacity:0.801136;stroke:#000000;stroke-width:2;stroke-dasharray:none"
           d="m -950.95148,1021.011 c 0,0 2.21542,17.6519 18.36659,23.798 l 3.7162,-1.9296 -0.28586,-5.5743 -1.35784,-5.4314 c 0,0 -4.35938,-10.6483 -20.43909,-10.8627 z"
           id="path69" /><path
           style="opacity:1;fill:#53fc4a;fill-opacity:0.801136;stroke:#000000;stroke-width:2;stroke-dasharray:none"
           d="M -825.24393,1005.9318 -880.9869,737.50794 c 0,0 -32.44527,-10.57687 -51.74092,-26.87097 l -9.1833,-4.50232 -14.08112,0.57524 -261.59646,59.81298 12.5064,30.30131 5.5743,-10.21954 7.0751,-7.07507 25.1558,-18.581 10.0766,-2.57275 h 9.5049 l 9.219,3.21594 6.7178,4.71672 23.3691,29.01493 9.5764,7.71826 8.0041,3.21594 9.2905,3.43034 -20.8442,-13.55879 -13.2904,-14.60422 -10.511,-18.64692 0.1516,-4.44696 49.2956,-9.42452 54.1215,22.84121 -17.8889,44.19166 13.7704,6.64517 13.8022,-32.50668 28.94342,12.43498 -18.22362,45.38049 -11.1486,-4.57378 -10.9342,24.58408 c 0,0 28.22878,7.78973 43.95116,-9.36196 15.72237,-17.15168 10.14808,-25.44166 10.5054,-31.23036 0.35733,-5.78869 4.14499,-27.29976 25.22727,-39.66327 21.08228,-12.3635 39.66327,-6.14602 39.66327,-6.14602 0,0 31.1589,9.86222 36.73319,33.94604 5.5743,24.08383 -1.00051,35.51828 -1.00051,35.51828 0,0 -8.93317,17.58048 -26.01339,38.09104 l -1.6437,3.85913 -2.00103,36.80465 c 0,0 2.57275,17.86634 16.36556,27.01391 13.79282,9.14756 28.72908,19.43857 33.58872,22.08279 4.85964,2.64422 23.65503,27.0139 23.65503,27.0139 z"
           id="path70" /><path
           style="opacity:1;fill:#53fc4a;fill-opacity:0.801136;stroke:#000000;stroke-width:2;stroke-dasharray:none"
           d="m -1081.5178,809.69744 50.4326,23.34654 -1.516,3.94162 12.1281,4.04269 -10.511,23.95295 c 0,0 -16.0697,-13.54302 -15.9687,-19.50599 0.1011,-5.96297 -10.4099,-18.79851 -10.7131,-19.80918 -0.3032,-1.01068 -22.6391,-20.21346 -23.8519,-15.96863 z"
           id="path71" /><path
           style="opacity:1;fill:#53fc4a;fill-opacity:0.801136;stroke:#000000;stroke-width:2;stroke-dasharray:none"
           d="m -825.81565,1003.6449 17.43755,82.1852 -58.74452,24.8699 0.42879,-3.5733 2.57275,-6.7177 13.72135,-19.4386 18.1522,-20.4391 10.00515,-38.1625 z"
           id="path72" /><path
           style="opacity:1;fill:#59fc50;fill-opacity:0.8;stroke:#000000;stroke-width:2"
           d="m -1099.0625,1092.375 2.8125,6.5625 5.4375,-2.125 -2.375,-6.3125 z"
           id="path341" /><path
           style="fill:#59fc50;fill-opacity:0.8;stroke:#000000;stroke-width:2"
           d="m -1080.6472,1086.1166 2.8125,6.5625 5.4375,-2.125 -2.375,-6.3125 z"
           id="path341-1" /><path
           style="fill:#59fc50;fill-opacity:0.8;stroke:#000000;stroke-width:2"
           d="m -1072.9124,1105.7466 2.8125,6.5625 5.4375,-2.125 -2.375,-6.3125 z"
           id="path341-9" /></g></g><g
       id="NhaOngNamGiao"
       style="display:inline"
       inkscape:label="NhaOngNamGiao"><path
         style="opacity:1;fill:#471919;fill-opacity:1;stroke:#000000;stroke-width:2"
         d="m -1782.0221,1370.8339 4.5023,10.291 -6.7177,2.4298 11.5059,26.5851 37.3764,-15.5794 -11.1486,-26.4422 -7.0751,3.216 -4.2879,-11.2201 z"
         id="path123" /></g><g
       id="LoRen"
       style="display:inline"
       inkscape:label="LoRen"><path
         style="opacity:1;fill:#471919;fill-opacity:1;stroke:#000000;stroke-width:2"
         d="m -1765.4905,1300.4296 15.4633,1.8697 -1.8193,18.8996 -16.1202,-2.1224 z"
         id="path124" /></g><g
       id="NhaOngCaNhiNguu"
       style="display:inline"
       inkscape:label="NhaOngCaNhiNguu"><path
         style="opacity:1;fill:#471919;fill-opacity:1;stroke:#000000;stroke-width:2"
         d="m -1944.6323,1321.0978 40.7301,1.0107 -1.1117,51.7464 -41.2355,-1.1117 z"
         id="path125" /></g><g
       id="TuongCuNguyenSinhSac"
       style="display:inline"
       inkscape:label="TuongCuNguyenSinhSac"><path
         style="opacity:1;fill:#b77040;fill-opacity:1;stroke:#000000;stroke-width:2"
         d="m -1824.6654,1513.3278 4.7501,10.7131 -4.3459,1.6171 15.6655,34.4639 2.4256,-1.1117 4.548,10.1067 15.1601,-6.4683 5.7608,-11.6227 -15.7665,-38.2035 -13.2398,-6.2661 z"
         id="path126" /></g><g
       id="DenThoCuSac"
       style="display:inline"
       inkscape:label="DenThoCuSac"><path
         style="opacity:1;fill:#b77040;fill-opacity:1;stroke:#000000;stroke-width:2"
         d="m -1566.6407,1471.3849 41.2355,97.8331 97.2267,-41.8419 -40.4269,-96.8224 z"
         id="path127" /></g><g
       id="NhaCuSac"
       style="display:inline"
       inkscape:label="NhaCuSac"><path
         style="opacity:1;fill:#b77040;fill-opacity:1;stroke:#000000;stroke-width:2"
         d="m -1849.8312,1326.9597 22.0327,1.0107 -1.9203,40.0226 -21.8305,-1.617 z"
         id="path128" /></g><g
       id="VomMoCuSac"
       style="display:inline"
       inkscape:label="VomMoCuSac"><path
         style="opacity:1;fill:#b77040;fill-opacity:1;stroke:#000000;stroke-width:2"
         d="m -1297.0582,1748.5997 47.5959,-19.5815 31.3019,24.5841 -13.2926,42.8792 -30.5872,12.7209 -41.164,-21.4396 z"
         id="path129" /></g><g
       id="NhaTrungBayNguyenSinhSac"
       style="display:inline;fill:#b77040;fill-opacity:1"
       inkscape:label="NhaTrungBayNguyenSinhSac"><path
         style="opacity:1;fill:#b77040;fill-opacity:1;stroke:#000000;stroke-width:2"
         d="m -1179.0689,1334.3866 42.379,-18.1522 -3.5018,-6.7178 32.6596,-14.1501 5.8602,14.7933 8.7188,-3.4303 5.9316,14.436 28.1573,-12.7923 31.7206,75.1842 -29.2084,11.3195 6.6199,14.7559 -8.4391,2.4256 5.4576,15.2611 -31.3309,13.0377 -2.9309,-7.0747 -42.8525,17.6868 -2.4257,-7.1758 -21.6284,8.7929 -15.2611,-35.7779 -13.9473,5.3566 -14.3515,-35.2725 13.2398,-6.3672 -12.4313,-31.0277 20.2134,-7.58 z"
         id="path130" /></g><g
       id="QuanLyKhuDiTich"
       style="display:inline"
       inkscape:label="QuanLyKhuDiTich"><path
         style="opacity:1;fill:#ffff00;fill-opacity:1;stroke:#000000;stroke-width:2"
         d="m -2409.4164,1606.5981 -15.8653,30.5872 64.8191,33.1599 15.8653,-31.4448 z"
         id="path138" /><path
         style="opacity:1;fill:#ffff00;fill-opacity:1;stroke:#000000;stroke-width:2"
         d="m -2486.7571,1327.2629 24.9636,3.8406 -11.3195,79.0346 -25.1658,-3.8406 z"
         id="path139" /><path
         style="opacity:1;fill:#ffff00;fill-opacity:1;stroke:#000000;stroke-width:2"
         d="m -1658.5299,903.34329 1.2506,2.57275 11.0414,-5.68149 1.5008,2.93008 44.7442,-20.19342 16.474,37.49596 -57.1536,24.76148 5.9125,12.63341 -23.4982,11.06686 -24.155,-55.18273 z"
         id="path140" /><path
         style="opacity:1;fill:#ffff00;fill-opacity:1;stroke:#000000;stroke-width:2"
         d="m -1324.9888,1374.6635 38.1023,-15.8676 37.597,88.2318 -38.3044,16.1707 z"
         id="path141" /><path
         style="opacity:1;fill:#ffff00;fill-opacity:1;stroke:#000000;stroke-width:2"
         d="m -954.73915,1767.2522 5.43137,9.5764 -12.00618,6.8606 15.57945,32.4453 7.0036,-1.8581 2.78715,5.1455 -5.3599,3.8591 9.36196,18.7954 61.38874,-31.7306 -34.94656,-67.2489 z"
         id="path142" /></g><g
       id="WC"
       style="display:inline"
       inkscape:label="WC"><path
         style="opacity:1;fill:#000080;fill-opacity:1;stroke:#000000;stroke-width:2"
         d="m -2528.4062,1698.2167 21.1537,-18.3666 17.8664,21.3681 -20.5821,18.0808 z"
         id="path145" /><path
         style="opacity:1;fill:#000080;fill-opacity:1;stroke:#000000;stroke-width:2"
         d="m -2342.3104,1728.9468 16.83,5.8959 -4.5023,10.6483 -16.8658,-5.6815 z"
         id="path146" /><path
         style="opacity:1;fill:#000080;fill-opacity:1;stroke:#000000;stroke-width:2"
         d="m -1899.0823,1739.3093 33.5887,0.7146 -1.1434,25.799 -33.3029,-0.8576 z"
         id="path147" /><path
         style="opacity:1;fill:#000080;fill-opacity:1;stroke:#000000;stroke-width:2"
         d="m -915.71906,1574.8675 22.65451,-5.2527 6.21749,20.8679 -23.08331,7.3252 z"
         id="path148" /><path
         style="opacity:1;fill:#000080;fill-opacity:1;stroke:#000000;stroke-width:2"
         d="m -1097.1832,930.47283 9.9046,23.95294 23.7508,-9.85406 -10.4605,-24.50881 z"
         id="path149" /><path
         style="opacity:1;fill:#000080;fill-opacity:1;stroke:#000000;stroke-width:2"
         d="m -2276.9415,1064.6396 26.5807,-11.8754 9.6014,25.3174 -24.0035,11.269 z"
         id="path150" /><path
         style="opacity:1;fill:#000080;fill-opacity:1;stroke:#000000;stroke-width:2"
         d="m -2209.2769,1364.0009 11.6227,0.5053 -1.9203,20.1124 -11.4711,-0.1516 z"
         id="path151" /><path
         style="opacity:1;fill:#000080;fill-opacity:1;stroke:#000000;stroke-width:2"
         d="m -2219.3186,1421.5743 0.7861,11.0771 20.2247,-1.465 -1.4293,-10.9699 z"
         id="path152" /><path
         style="opacity:1;fill:#000080;fill-opacity:1;stroke:#000000;stroke-width:2"
         d="m -2262.3764,1446.0154 10.5768,4.3952 -6.682,17.7591 -11.1128,-4.7524 z"
         id="path153" /></g><g
       id="NhaTrenCoc"
       style="display:inline"
       inkscape:label="NhaTrenCoc"><path
         style="opacity:1;fill:#00ffff;fill-opacity:1;stroke:#000000;stroke-width:2"
         d="m -2329.0179,1664.1277 39.7348,13.2926 -18.581,51.5979 -39.306,-14.1501 z"
         id="path143" /><path
         style="opacity:1;fill:#00ffff;fill-opacity:1;stroke:#000000;stroke-width:2"
         d="m -2466.0884,1576.3682 23.1547,36.0186 -47.0242,28.4432 -22.1542,-36.8761 z"
         id="path144" /></g><g
       id="NhaMat"
       style="display:inline"
       inkscape:label="NhaMat"><path
         style="fill:#ff00ff;fill-opacity:1;stroke:#000000;stroke-width:2"
         d="m -1084.3322,1054.1099 7.9371,18.9841 19.481,-8.0291 -8.4395,-19.1994 z"
         id="path154-6" /><path
         style="fill:#ff00ff;fill-opacity:1;stroke:#000000;stroke-width:2"
         d="m -928.21747,1100.2513 7.36491,19.2133 19.71275,-7.442 -7.86066,-19.4436 z"
         id="path154-4" /><path
         style="fill:#ff00ff;fill-opacity:1;stroke:#000000;stroke-width:2"
         d="m -1050.6528,1140.8427 7.156,19.2921 19.7923,-7.2277 -7.6492,-19.5277 z"
         id="path154-3" /><path
         style="fill:#ff00ff;fill-opacity:1;stroke:#000000;stroke-width:2"
         d="m -1161.5033,852.45162 7.6392,19.10599 19.6042,-7.72341 -8.1382,-19.32908 z"
         id="path154-2" /><path
         style="fill:#ff00ff;fill-opacity:1;stroke:#000000;stroke-width:2"
         d="m -2186.0317,1143.8472 8.5044,18.7369 19.2307,-8.6113 -9.013,-18.937 z"
         id="path154-68" /><path
         style="fill:#ff00ff;fill-opacity:1;stroke:#000000;stroke-width:2"
         d="m -2017.0069,1049.2718 8.2163,18.865 19.3604,-8.3156 -8.7218,-19.0728 z"
         id="path154-68-7" /><path
         style="fill:#ff00ff;fill-opacity:1;stroke:#000000;stroke-width:2"
         d="m -2101.5539,1514.1917 -0.3541,20.5735 21.0655,0.4694 -0.019,-20.9725 z"
         id="path154-1" /><path
         style="fill:#ff00ff;fill-opacity:1;stroke:#000000;stroke-width:2"
         d="m -2110.7715,1459.6664 4.3459,20.1124 20.6177,-4.3459 -4.8007,-20.4156 z"
         id="path154-11" /><path
         style="opacity:1;fill:#ff00ff;fill-opacity:1;stroke:#000000;stroke-width:2"
         d="m -2242.1238,1646.585 4.3459,20.1124 20.6177,-4.3459 -4.8007,-20.4156 z"
         id="path154" /></g><g
       id="NhaNocNgua"
       style="display:inline"
       inkscape:label="NhaNocNgua"><path
         style="opacity:1;fill:#800080;fill-opacity:1;stroke:#000000;stroke-width:2"
         d="m -2389.1261,1125.6337 20.3145,45.8846 42.3472,-18.2932 -20.2135,-45.6824 z"
         id="path156" /><path
         style="opacity:1;fill:#800080;fill-opacity:1;stroke:#000000;stroke-width:2"
         d="m -2076.8283,1338.7846 31.6341,-0.5053 2.2235,68.3214 -31.432,1.9203 z"
         id="path155" /></g><g
       id="NhaChuDinh"
       style="display:inline"
       inkscape:label="NhaChuDinh"><path
         style="opacity:1;fill:#520d73;fill-opacity:1;stroke:#000000;stroke-width:2"
         d="m -2304.6516,1425.0981 c 36.2393,13.2768 36.2393,13.2768 36.2393,13.2768 l -23.2259,66.1345 -37.099,-13.4057 z"
         id="path157" /><path
         style="opacity:1;fill:#520d73;fill-opacity:1;stroke:#000000;stroke-width:2"
         d="m -2461.8946,1187.3858 25.469,-17.7878 39.0119,58.4169 -26.2775,17.9899 z"
         id="path158" /></g><g
       id="NhaBatDan"
       style="display:inline"
       inkscape:label="NhaBatDan"><path
         style="opacity:1;fill:#0000ff;fill-opacity:1;stroke:#000000;stroke-width:2"
         d="m -2217.1096,1442.6818 45.4802,-3.0321 4.0427,50.7358 -46.4909,3.032 z"
         id="path159" /><path
         style="opacity:1;fill:#0000ff;fill-opacity:1;stroke:#000000;stroke-width:2"
         d="m -2251.4725,1315.1349 38.8098,3.8405 -6.9736,68.6247 -39.6184,-3.7395 z"
         id="path160" /></g><g
       id="NhaSanBacHo"
       style="display:inline"
       inkscape:label="NhaSanBacHo"><path
         style="opacity:1;fill:#c60074;fill-opacity:1;stroke:#000000;stroke-width:2"
         d="m -1549.5603,1211.1366 31.8362,0.5054 -1.415,46.0866 -32.1394,-0.7074 z"
         id="path161" /></g><g
       id="NhaTrungBayHoChiMinh"
       style="display:inline"
       inkscape:label="NhaTrungBayHoChiMinh"><path
         style="opacity:1;fill:#c60074;fill-opacity:1;stroke:#000000;stroke-width:2"
         d="m -1055.0765,1021.5112 18.1522,43.0222 -8.8617,2.1439 14.0072,32.7312 8.0041,-4.145 8.29,21.0108 13.4355,-5.1455 9.57635,19.5815 12.5779,-4.4308 2.28689,7.0036 29.44372,-11.0057 -3.57326,-8.0041 21.15374,-7.5754 -51.02626,-116.77433 z"
         id="path162" /></g><g
       id="NhaTrungBayDieuKhac"
       style="display:inline"
       inkscape:label="NhaTrungBayDieuKhac"><path
         style="opacity:1;fill:#d45500;fill-opacity:1;stroke:#000000;stroke-width:2"
         d="m -1065.347,1538.4935 c 22.7401,-10.1067 22.7401,-10.1067 22.7401,-10.1067 l 16.9793,5.6598 11.2506,15.9509 -2.2511,19.4743 -15.0435,14.5432 -21.118,0.8219 -16.5442,-12.3278 -3.9664,-19.7602 z"
         id="path165" /><path
         style="opacity:1;fill:#d45500;fill-opacity:1;stroke:#000000;stroke-width:2"
         d="m -887.16542,1467.6959 7.63058,19.9103 20.01132,10.612 22.08319,-7.0747 11.269,-16.2213 -0.25266,-23.1444 -15.71596,-15.1095 -22.63907,-2.173 -16.8277,11.3195 z"
         id="path166" /></g><g
       id="NhaKho"
       style="display:inline"
       inkscape:label="NhaKho"><path
         style="opacity:1;fill:#ff9955;fill-opacity:1;stroke:#000000;stroke-width:2"
         d="m -1927.5519,968.47412 39.8205,-16.3729 39.5173,95.71068 -38.1024,16.8783 z"
         id="path163" /></g><g
       id="BaiDoXe"
       style="display:inline"
       inkscape:label="BaiDoXe"><path
         style="opacity:1;fill:#ff9955;fill-opacity:1;stroke:#000000;stroke-width:2"
         d="m -1956.5582,980.50113 23.4476,-9.60139 40.8312,96.01386 -23.4476,10.9153 z"
         id="path164" /></g><g
       id="Cong5"
       style="display:inline"
       inkscape:label="Cong5"><path
         style="opacity:1;fill:#ff0000;fill-opacity:1;stroke:#000000;stroke-width:2"
         d="m -2516.6144,1268.5312 4.8239,0.2502 -3.7877,26.8709 -5.2884,-0.8218 z"
         id="path134" /></g><g
       id="Cong4"
       style="display:inline"
       inkscape:label="Cong4"><path
         style="opacity:1;fill:#ff0000;fill-opacity:1;stroke:#000000;stroke-width:2"
         d="m -830.60383,1095.192 7.14654,-3.1445 5.21697,13.1497 2.57275,-1.2149 10.57687,24.9414 -2.35836,1.0005 5.07405,12.292 -7.00361,2.7157 -5.21697,-12.3635 -2.28689,1.072 -10.29101,-23.798 2.64422,-1.072 z"
         id="path131" /></g><g
       id="Cong3"
       style="display:inline"
       inkscape:label="Cong3"><path
         style="opacity:1;fill:#ff0000;fill-opacity:1;stroke:#000000;stroke-width:2"
         d="m -1111.3832,1667.0006 2.5267,5.2555 40.4775,-19.9103 -3.1331,-5.8114 z"
         id="path136" /></g><g
       id="Cong2"
       style="display:inline"
       inkscape:label="Cong2"><path
         style="opacity:1;fill:#ff0000;fill-opacity:1;stroke:#000000;stroke-width:2"
         d="m -2152.8201,999.96445 24.0124,-10.43394 1.465,3.03727 11.899,-5.39563 2.9301,6.93214 -12.4707,5.75296 1.072,2.25115 -24.1196,10.2195 -1.2506,-2.5012 -13.0067,5.8601 -3.0373,-6.8607 14.0072,-5.6814 z"
         id="path133" /></g><g
       id="Cong1"
       style="display:inline"
       inkscape:label="Cong1"><path
         style="opacity:1;fill:#ff0000;fill-opacity:1;stroke:#000000;stroke-width:2"
         d="m -1324.5846,798.68111 8.894,20.61772 66.7043,-30.01698 -10.1067,-20.41559 z"
         id="path132" /></g><g
       id="NghiMon"
       style="display:inline"
       inkscape:label="NghiMon"><path
         style="opacity:1;fill:#ff0000;fill-opacity:1;stroke:#000000;stroke-width:2"
         d="m -1397.1097,1382.3398 6.4319,15.7939 -42.6648,17.9378 -7.0751,-15.6509 z"
         id="path135" /></g><g
       id="road"
       style="display:inline"
       inkscape:label="road"><path
         id="path195"
         style="opacity:0.496;fill:#fcb745;fill-opacity:0.92;stroke:#994625;stroke-width:2;stroke-dasharray:none"
         d="m -1250.3037,792.08851 -66.9629,26.35742 10.6856,22.79492 -1.4238,12.4668 -18.5215,9.97265 -10.3301,-4.98633 -7.4805,-19.58984 -174.5293,73.37305 9.6153,21.37109 2.1386,7.48047 -485.4804,204.80666 c 0,0 -64.114,19.591 -85.1289,-29.5625 -21.0149,-49.1535 -24.9317,-61.9766 -24.9317,-61.9766 l 5.3418,-13.5351 -18.8769,-44.87894 -40.25,18.16404 18.5214,46.3047 14.6036,3.918 30.9882,69.8125 c 0,0 39.5365,57.7025 104.0059,32.7695 64.4695,-24.9329 223.6854,-93.3203 223.6856,-93.3203 0,0 19.2338,-5.7006 29.207,12.4648 9.9732,18.1654 146.0351,345.1446 146.0351,345.1446 l -1.0683,4.9863 -3.5625,2.1367 -3.2051,2.1367 -1.4258,0.3575 5.6992,16.7402 6.4121,-2.1367 2.4922,5.6972 298.4844,-126.8007 c 0,0 12.1087,-5.6998 19.2324,8.1914 7.1237,13.8912 151.7364,300.2636 151.7364,300.2636 l -9.2618,4.9883 9.6172,20.6582 42.7422,-21.3711 -9.6172,-18.8789 -8.9043,3.918 -53.0722,-105.4297 c 0,0 -9.9724,-9.2618 6.4121,-16.0293 16.3845,-6.7675 159.57029,-67.3184 159.57029,-67.3184 0,0 32.76958,-23.864 22.08398,-55.5644 -10.6855,-31.7004 -57.70317,-140.3379 -57.70317,-140.3379 0,0 -3.5616,-27.4249 16.38481,-35.6172 19.9463,-8.1922 144.61133,-61.2637 144.61133,-61.2637 l 7.83594,3.2051 32.41406,-12.1094 -16.0293,-40.9628 -34.19336,13.8925 -1.06835,8.5489 -185.57223,78.3593 c 0,0 -25.2903,10.3305 -36.3321,-17.0957 -11.0417,-27.4263 -165.625,-392.51559 -165.625,-392.51559 z m -48.1425,85.04101 c 11.8862,-0.22583 19.1132,13.08789 19.1132,13.08789 0,0 129.2948,302.39939 137.1309,323.23629 7.8361,20.8368 -12.8223,32.4141 -12.8223,32.4141 l -396.2558,165.9805 c -17.0495,4.7802 -26.0176,-10.5723 -26.0176,-10.5723 0,0 -131.4712,-308.5297 -138.2715,-325.4043 -6.8002,-16.8747 13.5996,-28.7109 13.5996,-28.7109 0,0 380.4287,-161.04004 396.457,-168.34183 2.5045,-1.1409 4.8653,-1.64763 7.0665,-1.68945 z m 235.4804,364.28318 c 13.45,0.4821 25.4043,10.5098 25.4043,10.5098 l 61.45509,146.584 c 0,0 -8.56476,23.1706 -9.57226,25.1855 -1.0074,2.0148 -147.08503,62.4612 -160.68553,68.5059 -13.6005,6.0446 -18.1348,-6.0449 -18.1348,-6.0449 l -77.0683,-154.1387 c -8.0596,-14.1042 5.539,-17.127 5.539,-17.127 0,0 151.6209,-70.0167 167.2363,-73.039 1.952,-0.3778 3.9048,-0.5044 5.8262,-0.4356 z" /></g><g
       id="street"
       style="display:inline"
       inkscape:label="street"><path
         id="path196"
         style="display:inline;opacity:0.748908;fill:#afa2a2;fill-opacity:0.435294;stroke:#000000;stroke-width:4;stroke-dasharray:none;stroke-opacity:1"
         d="m -907.60055,494.32679 -30.22461,3.02148 5.03711,33.24609 -24.17773,38.28125 -1448.70312,343.53907 -15.1113,-16.11914 52.3867,-116.86328 -50.3711,-24.17969 -81.6035,195.44531 -53.3946,39.28906 -32.2382,16.11916 -93.6914,11.082 -2.0157,64.9805 36.7715,4.0293 49.8692,13.6015 33.75,23.6739 12.0878,23.1718 -3.0214,50.875 -21.6602,83.1153 c 0,0 -64.9795,437.2304 -68.0019,458.3867 -3.0223,21.1563 -27.2012,21.6602 -27.2012,21.6602 l -31.7344,-4.0313 -2.0156,23.6758 85.6328,11.082 c 0,0 933.3949,24.1782 955.5586,25.1856 22.1638,1.0075 22.668,7.5566 22.668,7.5566 0,0 58.9352,311.8022 63.4687,336.9883 4.5335,25.186 -12.0879,25.6894 -12.0879,25.6894 l -57.9297,6.5489 v 13.0976 l 593.6367,-2.2676 532.43364,-131.7226 -35.9043,-140.9629 -299.90625,76.2246 -13.89257,-30.6328 -22.08399,8.9043 -110.41603,-223.3262 552.08595,-169.1894 -16.02734,-54.4961 -147.81836,43.4551 -6.41016,-5.3418 -178.44921,-861.96879 10.33007,-10.68555 13.53516,-6.41016 20.30273,-54.14062 212.99805,-47.37305 18.87695,77.29297 22.43946,-4.0957 20.83789,-4.09766 -37.22461,-170.05664 -23.67383,0.12695 2.51758,12.5918 -6.04492,6.17187 -242.07227,52.50391 -32.05664,-49.86523 -45.5918,-8.54883 -2.84765,-13.53516 z m -17.63086,180.83593 c 0,0 10.07368,0.25007 19.39258,11.08008 9.3188,10.83001 33.49805,13.60156 33.49805,13.60156 l 9.06641,7.55469 75.47656,360.19725 c 0,0 -3.56215,20.6589 -18.34375,24.2207 -14.55074,3.5063 -14.43302,5.289 -14.42578,5.3438 l 16.02929,41.6718 c 0,0 25.28829,-10.3277 31.52149,10.8653 6.2333,21.193 87.26562,416.7363 87.26562,416.7363 0,0 1.95812,18.699 -13.17968,23.6856 -15.1379,4.9866 -341.22458,95.6347 -341.22458,95.6347 0,0 -11.7532,3.0289 -17.9864,-10.3281 -6.2332,-13.3569 -10.5078,-22.7969 -10.5078,-22.7969 l -40.0703,19.2344 92.4297,182.9004 -17.6309,6.7676 63.57817,122.707 -366.60347,77.6484 -2.4922,-5.3437 -133.3028,-366.5137 -62.1543,14.0684 -39.7148,-19.0547 -22.7949,21.3711 -6.9453,-0.7129 -3.92,3.3828 6.2344,44.168 -7.123,2.4922 1.9589,21.7285 -951.7265,-20.4805 -17.8086,-9.2617 -8.5488,-16.0274 68.7968,-463.6621 13.0977,-91.6777 77.0684,-118.877 244.8085,-59.69136 14.1036,6.80076 0.5039,4.5332 48.1054,-19.14256 -5.541,-10.32617 c 0,0 0.2524,-16.62211 12.0899,-19.39258 11.8374,-2.77047 774.7246,-186.125 774.7246,-186.125 0,0 7.0507,0.25128 12.3398,9.06641 5.2891,8.81512 7.0528,13.34961 7.0528,13.34961 l 55.6601,-24.93555 c 0,0 -5.5401,-13.59904 7.5566,-17.37695 13.0968,-3.77791 329.68559,-79.08399 329.68559,-79.08399 z" /><path
         style="display:inline;opacity:0.748908;fill:#afa2a2;fill-opacity:0;stroke:#000000;stroke-width:4;stroke-dasharray:none;stroke-opacity:1"
         d="m -2390.5568,767.84654 -52.387,121.90057 c 0,0 7.0521,53.89818 42.3126,46.34236 35.2605,-7.55582 1453.2361,-349.58263 1453.2361,-349.58263 0,0 19.1415,-12.08931 17.6303,-20.14885 -1.5112,-8.05955 22.6674,-19.64514 22.6674,-19.64514 0,0 7.0521,-13.09675 5.0373,-26.69723 -2.0149,-13.60048 -5.541,-25.18607 -5.541,-25.18607"
         id="path197" /><path
         style="opacity:0.748908;fill:#afa2a2;fill-opacity:0.435294;stroke:#000000;stroke-width:4;stroke-dasharray:none;stroke-opacity:1"
         d="m -1606.6198,1776.49 80.8308,427.8942"
         id="path234" /><path
         style="opacity:0.748908;fill:#afa2a2;fill-opacity:0.435294;stroke:#000000;stroke-width:4;stroke-dasharray:none;stroke-opacity:1"
         d="m -1403.695,2204.9495 865.3977,-201.229"
         id="path235" /><path
         style="opacity:0.748908;fill:#afa2a2;fill-opacity:0.435294;stroke:#000000;stroke-width:4;stroke-dasharray:none;stroke-opacity:1"
         d="m -526.9923,2042.7227 -666.4297,160.531"
         id="path236" /><path
         style="opacity:0.748908;fill:#afa2a2;fill-opacity:0;stroke:#000000;stroke-width:4;stroke-dasharray:none;stroke-opacity:1"
         d="m -547.9065,1960.7615 -300.713,76.3087 -24.3058,-47.481 -22.61,8.4788 -118.1372,-238.5355 561.2932,-173.8144"
         id="path237" /><path
         style="opacity:0.748908;fill:#afa2a2;fill-opacity:0;stroke:#000000;stroke-width:4;stroke-dasharray:none;stroke-opacity:1"
         d="m -459.1623,1562.5429 -154.8785,46.9157 -25.1536,-17.2401 -183.9889,-884.33364 22.8926,-22.04475 7.6309,-3.10887 21.4795,-56.80763 231.4699,-53.69875 19.2185,10.73975 20.6316,86.48325"
         id="path238" /><path
         style="opacity:0.748908;fill:#afa2a2;fill-opacity:0.435294;stroke:#000000;stroke-width:4;stroke-dasharray:none;stroke-opacity:1"
         d="m -2416.3833,992.70357 -2.598,-11.59107 232.0213,-55.55721 2.7978,10.79169 z"
         id="path239" /><path
         style="opacity:0.748908;fill:#afa2a2;fill-opacity:0.435294;stroke:#000000;stroke-width:4;stroke-dasharray:none;stroke-opacity:1"
         d="m -2135.6938,925.50611 771.6998,-185.00826 -2.598,-12.19061 -771.6454,184.97534 z"
         id="path240" /><path
         style="opacity:0.748908;fill:#afa2a2;fill-opacity:0.435294;stroke:#000000;stroke-width:4;stroke-dasharray:none;stroke-opacity:1"
         d="m -1255.4582,714.52655 305.5452,-73.35219 -2.2982,-12.39045 -306.4972,73.30714 z"
         id="path241" /><path
         style="opacity:0.748908;fill:#afa2a2;fill-opacity:0.435294;stroke:#000000;stroke-width:4;stroke-dasharray:none;stroke-opacity:1"
         d="m -993.3795,1727.0379 -3.5972,-9.8924 144.683,-44.6615 2.8263,9.044 z"
         id="path242" /><path
         style="opacity:0.748908;fill:#afa2a2;fill-opacity:0.435294;stroke:#000000;stroke-width:4;stroke-dasharray:none;stroke-opacity:1"
         d="m -815.2698,1671.0709 -2.5436,-8.7614 124.9202,-39.2849 3.9568,8.7614 z"
         id="path243" /><circle
         style="opacity:0.748908;fill:#afa2a2;fill-opacity:0.435294;stroke:#000000;stroke-width:4;stroke-dasharray:none;stroke-opacity:1"
         id="path244"
         cx="-862.18048"
         cy="614.79468"
         r="32.574905" /><text
         xml:space="preserve"
         style="font-size:24px;writing-mode:lr-tb;direction:ltr;opacity:0.748908;fill:#000000;fill-opacity:1;stroke:#000000;stroke-width:0;stroke-dasharray:none;stroke-opacity:1"
         x="-1172.678"
         y="1859.0687"
         id="text244"
         transform="rotate(-13,-4.6075464e-6,3.4042805e-4)"><tspan
           x="-1172.678"
           y="1859.0687"
           style="font-style:normal;font-variant:normal;font-weight:normal;font-stretch:normal;font-size:24px;font-family:Arial;-inkscape-font-specification:Arial;fill:#000000;fill-opacity:1;stroke-width:0;stroke-dasharray:none"
           rotate="0 0 0 0 0 0 0 0 0 0 0 0 0"
           id="tspan245">PHẠM HỮU LẦU</tspan></text><text
         xml:space="preserve"
         style="font-size:24px;writing-mode:lr-tb;direction:ltr;opacity:0.748908;fill:#000000;fill-opacity:1;stroke:#000000;stroke-width:0;stroke-dasharray:none;stroke-opacity:1"
         x="-1401.3317"
         y="1384.0299"
         id="text244-9"
         transform="rotate(-15,-2.9397529e-7,4.5391945e-5)"><tspan
           id="tspan244-4"
           x="-1401.3317"
           y="1384.0299"
           style="font-style:normal;font-variant:normal;font-weight:normal;font-stretch:normal;font-size:24px;font-family:Arial;-inkscape-font-specification:Arial;fill:#000000;fill-opacity:1;stroke-width:0;stroke-dasharray:none"
           rotate="0 0 0 0 0 0 0 0 0 0 0 0 0 0 0 0 0">TUYẾN ĐƯỜNG SỐ 2</tspan></text><text
         xml:space="preserve"
         style="font-size:24px;writing-mode:lr-tb;direction:ltr;opacity:0.748908;fill:#000000;fill-opacity:1;stroke:#000000;stroke-width:0;stroke-dasharray:none;stroke-opacity:1"
         x="-2076.3608"
         y="1869.0122"
         id="text244-9-5"
         transform="rotate(2,2.5940853e-4,1.0215063e-4)"><tspan
           id="tspan244-4-5"
           x="-2076.3608"
           y="1869.0122"
           style="font-style:normal;font-variant:normal;font-weight:normal;font-stretch:normal;font-size:24px;font-family:Arial;-inkscape-font-specification:Arial;fill:#000000;fill-opacity:1;stroke-width:0;stroke-dasharray:none"
           rotate="0 0 0 0 0 0 0 0 0 0 0 0 0 0 0 0 0">TUYẾN ĐƯỜNG SỐ 1</tspan></text><text
         xml:space="preserve"
         style="font-size:24px;writing-mode:lr-tb;direction:ltr;opacity:0.748908;fill:#000000;fill-opacity:1;stroke:#000000;stroke-width:0;stroke-dasharray:none;stroke-opacity:1"
         x="-2526.459"
         y="401.83658"
         id="text244-9-5-7"
         transform="rotate(-13,-4.6075464e-6,3.4042805e-4)"><tspan
           id="tspan244-4-5-1"
           x="-2526.459"
           y="401.83658"
           style="font-style:normal;font-variant:normal;font-weight:normal;font-stretch:normal;font-size:24px;font-family:Arial;-inkscape-font-specification:Arial;fill:#000000;fill-opacity:1;stroke-width:0;stroke-dasharray:none"
           rotate="0 0 0 0 0 0 0 0 0 0 0 0">LÊ VĂN GIÁO</tspan></text><text
         xml:space="preserve"
         style="font-size:24px;writing-mode:lr-tb;direction:ltr;opacity:0.748908;fill:#000000;fill-opacity:1;stroke:#000000;stroke-width:0;stroke-dasharray:none;stroke-opacity:1"
         x="-2049.7483"
         y="396.45966"
         id="text244-9-5-7-5"
         transform="rotate(-13,-4.6075464e-6,3.4042805e-4)"><tspan
           id="tspan244-4-5-1-2"
           x="-2049.7483"
           y="396.45966"
           style="font-style:normal;font-variant:normal;font-weight:normal;font-stretch:normal;font-size:24px;font-family:Arial;-inkscape-font-specification:Arial;fill:#000000;fill-opacity:1;stroke-width:0;stroke-dasharray:none"
           rotate="0 0 0 0 0 0 0 0 0 0 0 0">LÊ VĂN GIÁO</tspan></text><text
         xml:space="preserve"
         style="font-size:24px;writing-mode:lr-tb;direction:ltr;opacity:0.748908;fill:#000000;fill-opacity:1;stroke:#000000;stroke-width:0;stroke-dasharray:none;stroke-opacity:1"
         x="-1304.9253"
         y="389.24945"
         id="text244-9-5-7-5-6"
         transform="rotate(-13,-4.6075464e-6,3.4042805e-4)"><tspan
           id="tspan244-4-5-1-2-1"
           x="-1304.9253"
           y="389.24945"
           style="font-style:normal;font-variant:normal;font-weight:normal;font-stretch:normal;font-size:24px;font-family:Arial;-inkscape-font-specification:Arial;fill:#000000;fill-opacity:1;stroke-width:0;stroke-dasharray:none"
           rotate="0 0 0 0 0 0 0 0 0 0 0 0">LÊ VĂN GIÁO</tspan></text><text
         xml:space="preserve"
         style="font-size:24px;writing-mode:lr-tb;direction:ltr;opacity:0.748908;fill:#000000;fill-opacity:1;stroke:#000000;stroke-width:0;stroke-dasharray:none;stroke-opacity:1"
         x="-1302.3359"
         y="-945.11188"
         id="text244-9-8"
         transform="rotate(-101,4.4082106e-5,4.9832553e-5)"><tspan
           id="tspan244-4-2"
           x="-1302.3359"
           y="-945.11188"
           style="font-style:normal;font-variant:normal;font-weight:normal;font-stretch:normal;font-size:24px;font-family:Arial;-inkscape-font-specification:Arial;fill:#000000;fill-opacity:1;stroke-width:0;stroke-dasharray:none"
           rotate="0 0 0 0 0 0 0 0 0 0 0 0 0 0 0 0">NGUYỄN VĂN SÀNH</tspan></text><text
         xml:space="preserve"
         style="font-size:24px;writing-mode:lr-tb;direction:ltr;opacity:0.748908;fill:#000000;fill-opacity:1;stroke:#000000;stroke-width:0;stroke-dasharray:none;stroke-opacity:1"
         x="-857.88599"
         y="-951.77551"
         id="text244-9-8-2"
         transform="rotate(-101,4.4082106e-5,4.9832553e-5)"><tspan
           id="tspan244-4-2-3"
           x="-857.88599"
           y="-951.77551"
           style="font-style:normal;font-variant:normal;font-weight:normal;font-stretch:normal;font-size:24px;font-family:Arial;-inkscape-font-specification:Arial;fill:#000000;fill-opacity:1;stroke-width:0;stroke-dasharray:none"
           rotate="0 0 0 0 0 0 0 0 0 0 0 0 0 0 0 0">NGUYỄN VĂN SÀNH</tspan></text></g></g></svg>
